<svg xmlns="http://www.w3.org/2000/svg" width="155.12" height="35" viewBox="0 0 155.12 35"><g transform="translate(-652.974 -478.229)"><g transform="translate(652.974 478.229)"><path d="M-140.945-222.384a6.769,6.769,0,0,1,1.076-2.268c.734.288,2.586.109,3.09-.613s1.423-4.107.968-5.4c-1.073.017-4.723-3.182-6.114-1.187-.694,1-.25,1.327.174,1.453.652.194,1.382-.883,1.948-.059-.289,1.219-4.226,1.261-2.612-1.775,1.409-2.651,5.6,1.094,6.7-.258,0,0,4.216-2.626,5.818-5.722s4.124-4.718,5.179-4.578,5.931,1.471,6.975,1.285c.6-.107,1.785,1.128,2.68,2.194l2.983.4a5.894,5.894,0,0,1,2.6,2.1c-.061-.224-.123-.448-.193-.673a16.75,16.75,0,0,0-8.5-10.339,17.05,17.05,0,0,0-13.409-1.09,17.048,17.048,0,0,0-10.445,8.479,16.747,16.747,0,0,0-1.164,13.332,18.461,18.461,0,0,0,2.234,4.781A.271.271,0,0,1-140.945-222.384Z" transform="translate(144.054 249.789)" fill="#ffba00"/><path d="M-79.968-158.85a4.23,4.23,0,0,0-2.777-1.3c-.684-.012-1.289-.031-1.777-.049a3.641,3.641,0,0,1-.06.479l1.5.7a5.9,5.9,0,0,1,2.028,3.569,4.519,4.519,0,0,0-2.469-2.276,13.112,13.112,0,0,1-2.315-1.143.569.569,0,0,1-.289-.326l-.512-1.479.1,1.585a.753.753,0,0,0,.485.657c.255.1.607.236,1.024.414-.131.423-.259.8-.342,1.039a.675.675,0,0,1-.347.388l-1.89.909c-.2.093-.313.732-.749.479l-.756-.583a.336.336,0,0,1-.113-.374l.364-1.069c.07-.26-.206-.5-.4-.686a2.759,2.759,0,0,1-.8-2,2.562,2.562,0,0,0,.529,2.595,2.013,2.013,0,0,0,1.586,2.809,5.09,5.09,0,0,1-.91,2.5L-92-151.47l-1.089-.427-.516,1.064-1.034-1.548,1.235-.746.971.236c.166.04.509.2.672.148l1.86-.7a4.159,4.159,0,0,0-2.487-.475c-2.379.567-2.746-.2-3.916-1.5l.424.67a.405.405,0,0,1-.187.606c-1.335.59-3.857,1.122-4.458,1.983,0,0-.731-2.542-1.325-2.263.689.611,1.072,2.937.663,4.208-.533,1.657-5.26,3.983-5.26,3.983l-2.724.486a2.571,2.571,0,0,0-.577,1.251c-.014.227.8,1.017.526,1.332l-1.013-.01a16.3,16.3,0,0,0,2.462,2.263V-143.1h4.145v4.509q.626.25,1.26.447v-7.916h4.145v8.644q.626.028,1.26.009v-11h4.145v10.386q.451-.118.905-.259c.12-.037.236-.079.354-.118v-12.537h4.145v10.616q.654-.41,1.26-.871v-13.824h4.145v9.2c.187-.307.369-.619.542-.942A16.574,16.574,0,0,0-79.968-158.85Z" transform="translate(114.754 172.398)" fill="#fff"/></g><g transform="translate(700.95 486.229)"><g transform="translate(41.58)"><path d="M-59.859,79.57a8.574,8.574,0,0,1,6.279-2.519A8.575,8.575,0,0,1-47.3,79.57,8.424,8.424,0,0,1-44.757,85.8,8.422,8.422,0,0,1-47.3,92.032a8.573,8.573,0,0,1-6.279,2.519,8.572,8.572,0,0,1-6.279-2.519A8.421,8.421,0,0,1-62.4,85.8,8.423,8.423,0,0,1-59.859,79.57Zm9.63,2.748a4.478,4.478,0,0,0-3.351-1.362,4.477,4.477,0,0,0-3.35,1.362A4.785,4.785,0,0,0-58.256,85.8a4.785,4.785,0,0,0,1.326,3.483,4.477,4.477,0,0,0,3.35,1.362,4.478,4.478,0,0,0,3.351-1.362A4.786,4.786,0,0,0-48.9,85.8,4.786,4.786,0,0,0-50.229,82.318Z" transform="translate(62.402 -77.051)" fill="#ffba00"/><path d="M35.519,95.291l-3.977-5.857H30.264v5.857h-4.1V78.418h7.521a5.823,5.823,0,0,1,4.23,1.507,5.49,5.49,0,0,1,1.555,4.134q0,3.881-3.375,4.99l4.435,6.243Zm-.193-11.184q0-1.784-2.1-1.784H30.264v3.519h2.965Q35.326,85.842,35.326,84.107Z" transform="translate(-5.87 -78.105)" fill="#ffba00"/><path d="M110.468,82.323h-7.52V84.83h6.846v3.905h-6.846v2.651h7.52v3.905H98.85V78.418h11.618Z" transform="translate(-61.898 -78.105)" fill="#ffba00"/><g transform="translate(50.017 0.313)"><path d="M10.678,16.873l-2.9-4.59-2.9,4.59H0L5.339,8.437,0,0H4.869L15.547,16.873Z" transform="translate(0 0)" fill="#ffba00"/></g></g><g transform="translate(0 0.313)"><path d="M-233.8,78.418h4.17l-.024,9.979a7.018,7.018,0,0,1-1.965,5.339,7.128,7.128,0,0,1-5.122,1.868,7.126,7.126,0,0,1-5.122-1.868,7.017,7.017,0,0,1-1.965-5.339l-.024-9.979h4.17v9.738q0,3.544,2.941,3.543t2.941-3.543Z" transform="translate(243.848 -78.418)" fill="#fff"/><path d="M-163.49,91.386h6.846v3.905h-10.943V78.418h4.1Z" transform="translate(185.064 -78.418)" fill="#fff"/><path d="M-113.915,78.418v3.905h-4.6V95.291h-4.1V82.323h-4.58V78.418Z" transform="translate(153.929 -78.418)" fill="#fff"/><path d="M194.818,85.913l4.743-7.5h-4.869l-2.309,3.648Z" transform="translate(-92.417 -78.418)" fill="#fff"/></g></g></g></svg>