<svg xmlns="http://www.w3.org/2000/svg" width="12" height="13.091" viewBox="0 0 12 13.091">
  <path id="asterisk-solid" d="M33.019,8.542l-3.636-2,3.636-2a.614.614,0,0,0,.236-.845l-.5-.863a.614.614,0,0,0-.85-.218L28.36,4.774,28.449.627A.614.614,0,0,0,27.836,0h-1a.614.614,0,0,0-.613.627l.089,4.147L22.767,2.624a.614.614,0,0,0-.85.218l-.5.863a.614.614,0,0,0,.236.845l3.636,2-3.636,2a.614.614,0,0,0-.236.845l.5.863a.614.614,0,0,0,.85.218l3.547-2.151-.089,4.147a.614.614,0,0,0,.614.627h1a.614.614,0,0,0,.614-.627L28.36,8.317l3.547,2.151a.614.614,0,0,0,.85-.218l.5-.863A.614.614,0,0,0,33.019,8.542Z" transform="translate(-21.337)" fill="#ffba00"/>
</svg>
