<svg xmlns="http://www.w3.org/2000/svg" width="22.091" height="21.538" viewBox="0 0 22.091 21.538"><g transform="translate(1.921 0.612)"><circle cx="8.386" cy="8.386" r="8.386" transform="translate(0.932 1.77)" fill="#ffba00"/><path d="M.27,11.854c.725-.307,1.689-.558,2.3-.826a.283.283,0,0,0,.135-.427L2.4,10.129c.839.92,1.1,1.461,2.805,1.061a2.712,2.712,0,0,1,1.36.148c.282.1.466.191.421.187l-1.331.493c-.116.035-.362-.077-.481-.105l-.695-.167-.886.528.741,1.094.369-.753.78.3,2.252-.391a3.562,3.562,0,0,0,.651-1.768A1.417,1.417,0,0,1,7.256,8.775a1.79,1.79,0,0,1-.38-1.835,1.938,1.938,0,0,0,.575,1.415c.136.135.335.3.284.487l-.26.755a.239.239,0,0,0,.081.266l.541.412c.312.177.4-.274.537-.339l1.354-.642a.478.478,0,0,0,.247-.275c.06-.168.152-.435.245-.734-.3-.125-.551-.225-.732-.293A.534.534,0,0,1,9.4,7.527L9.326,6.406l.367,1.046a.407.407,0,0,0,.207.231,9.565,9.565,0,0,0,1.658.807A3.207,3.207,0,0,1,13.325,10.1a4.159,4.159,0,0,0-1.45-2.521L10.8,7.084a2.642,2.642,0,0,0,.04-.339c.351.011.785.027,1.274.034a3.008,3.008,0,0,1,1.942.879c-.06-.105-.167-.318-.268-.531a4.392,4.392,0,0,0-1.744-1.311L9.908,5.53C9.267,4.776,8.419,3.9,7.988,3.979c-.748.132-4.239-.809-5-.908-.612-.079-1.911.656-2.993,2.1a8.211,8.211,0,1,1,.27,6.685Z" transform="matrix(0.966, -0.259, 0.259, 0.966, 0.008, 4.1)" fill="#22242a" stroke="rgba(0,0,0,0)" stroke-miterlimit="10" stroke-width="1"/><g transform="translate(0 0.838)"><g fill="none" stroke="#ffba00" stroke-width="2"><circle cx="9.318" cy="9.318" r="9.318" stroke="none"/><circle cx="9.318" cy="9.318" r="8.318" fill="none"/></g></g></g></svg>