<svg xmlns="http://www.w3.org/2000/svg" width="16" height="16.002" viewBox="0 0 16 16.002"><g transform="translate(-1220.999 -975.618)"><path d="M-10669,788.62a8.011,8.011,0,0,1-8-8,8.011,8.011,0,0,1,8-8,8.009,8.009,0,0,1,8,8A8.009,8.009,0,0,1-10669,788.62Zm0-6.485h0l2.273,2.274a.711.711,0,0,0,.5.209.714.714,0,0,0,.507-.209l.506-.506a.709.709,0,0,0,.21-.505.709.709,0,0,0-.21-.505l-2.274-2.275,2.274-2.275a.709.709,0,0,0,.21-.505.709.709,0,0,0-.21-.505l-.506-.506a.714.714,0,0,0-.506-.209.708.708,0,0,0-.5.209L-10669,779.1l-2.275-2.275a.708.708,0,0,0-.5-.209.708.708,0,0,0-.5.209l-.507.506a.715.715,0,0,0,0,1.01l2.275,2.275-2.275,2.275a.715.715,0,0,0,0,1.01l.507.506a.708.708,0,0,0,.5.209.708.708,0,0,0,.5-.209l2.274-2.274Z" transform="translate(11898 203)" fill="#9aa3a7" opacity="0.25"/></g></svg>