<svg xmlns="http://www.w3.org/2000/svg" width="12" height="12" viewBox="0 0 12 12"><path d="M134.75,7.3c1.343-.26,2.25-.743,2.25-1.3V5a5.756,5.756,0,0,1-2.25.809Zm-.11-2.229c1.406-.253,2.36-.75,2.36-1.32v-1a7.63,7.63,0,0,1-3.766.98A2.625,2.625,0,0,1,134.64,5.07ZM137,1.5c0-.827-2.016-1.5-4.5-1.5S128,.673,128,1.5,130.016,3,132.5,3,137,2.327,137,1.5Z" transform="translate(-125)" fill="#bfc1c3"/><path d="M4.5,163.75c2.484,0,4.5-.839,4.5-1.875S6.984,160,4.5,160s-4.5.839-4.5,1.875S2.016,163.75,4.5,163.75Zm-4.5,2v1c0,.827,2.016,1.5,4.5,1.5s4.5-.673,4.5-1.5v-1a8.523,8.523,0,0,1-4.5,1A8.523,8.523,0,0,1,0,165.749Zm0-2.459V164.5c0,.827,2.016,1.5,4.5,1.5s4.5-.673,4.5-1.5v-1.209A7.548,7.548,0,0,1,4.5,164.5,7.548,7.548,0,0,1,0,163.291Z" transform="translate(0 -156.25)" fill="#fff"/></svg>