<svg xmlns="http://www.w3.org/2000/svg" width="25" height="20" viewBox="0 0 25 20"><path d="M-176.469,0h-8.75a.625.625,0,0,0-.625.625v8.75a.625.625,0,0,0,.625.625h8.75a.625.625,0,0,0,.625-.625V.625A.625.625,0,0,0-176.469,0Zm-12.656,2.5h-6.25a.625.625,0,0,0-.625.625v6.25a.625.625,0,0,0,.625.625h6.25a.625.625,0,0,0,.625-.625V3.125A.625.625,0,0,0-189.125,2.5Z" transform="translate(198.109)" fill="#fff"/><path d="M21.25,320H3.75a3.75,3.75,0,0,0,0,7.5h17.5a3.75,3.75,0,0,0,0-7.5ZM5,325a1.25,1.25,0,1,1,1.25-1.25A1.25,1.25,0,0,1,5,325Zm7.5,0a1.25,1.25,0,1,1,1.25-1.25A1.25,1.25,0,0,1,12.5,325Zm7.5,0a1.25,1.25,0,1,1,1.25-1.25A1.25,1.25,0,0,1,20,325Z" transform="translate(0 -307.5)" fill="#ffba00"/></svg>