<svg xmlns="http://www.w3.org/2000/svg" width="15" height="12" viewBox="0 0 15 12"><path d="M-184.281,0h-5.25a.375.375,0,0,0-.375.375v5.25a.375.375,0,0,0,.375.375h5.25a.375.375,0,0,0,.375-.375V.375A.375.375,0,0,0-184.281,0Zm-7.594,1.5h-3.75a.375.375,0,0,0-.375.375v3.75a.375.375,0,0,0,.375.375h3.75a.375.375,0,0,0,.375-.375V1.875A.375.375,0,0,0-191.875,1.5Z" transform="translate(197.266)" fill="#fff"/><path d="M12.75,320H2.25a2.25,2.25,0,0,0,0,4.5h10.5a2.25,2.25,0,0,0,0-4.5ZM3,323a.75.75,0,1,1,.75-.75A.75.75,0,0,1,3,323Zm4.5,0a.75.75,0,1,1,.75-.75A.75.75,0,0,1,7.5,323Zm4.5,0a.75.75,0,1,1,.75-.75A.75.75,0,0,1,12,323Z" transform="translate(0 -312.5)" fill="#9aa3a7"/></svg>