<svg id="copy-duotone" xmlns="http://www.w3.org/2000/svg" width="15.75" height="18" viewBox="0 0 15.75 18">
  <path id="Path_4899" data-name="Path 4899" d="M135.875,3.375V0h-7.031A.844.844,0,0,0,128,.844V13.781a.844.844,0,0,0,.844.844h9.563a.844.844,0,0,0,.844-.844V3.375Z" transform="translate(-123.5 0)" fill="#bfc1c3"/>
  <path id="Path_4900" data-name="Path 4900" d="M3.375,13.781V3.375H.844A.844.844,0,0,0,0,4.219V17.156A.844.844,0,0,0,.844,18h9.562a.844.844,0,0,0,.844-.844V15.75H5.344a1.971,1.971,0,0,1-1.969-1.969ZM15.5,2.566,13.184.246a.844.844,0,0,0-.6-.246h-.211V3.375H15.75V3.162a.844.844,0,0,0-.246-.6Z" transform="translate(0 0)" fill="#40454f"/>
</svg>
