<svg xmlns="http://www.w3.org/2000/svg" xmlns:xlink="http://www.w3.org/1999/xlink" width="40.677" height="32.542" viewBox="0 0 40.677 32.542"><defs><linearGradient id="a" x1="0.5" x2="0.5" y2="1" gradientUnits="objectBoundingBox"><stop offset="0" stop-color="#ffba00"/><stop offset="1" stop-color="#e2760c"/></linearGradient></defs><path d="M33.559,28.474H7.118A1.02,1.02,0,0,0,6.1,29.491v2.034a1.02,1.02,0,0,0,1.017,1.017h26.44a1.02,1.02,0,0,0,1.017-1.017V29.491A1.02,1.02,0,0,0,33.559,28.474ZM37.626,8.135a3.052,3.052,0,0,0-3.051,3.051,2.989,2.989,0,0,0,.28,1.258l-4.6,2.758a2.031,2.031,0,0,1-2.809-.737L22.264,5.4a3.051,3.051,0,1,0-3.852,0l-5.18,9.063a2.033,2.033,0,0,1-2.809.737l-4.6-2.758a3.05,3.05,0,1,0-2.777,1.792,3.115,3.115,0,0,0,.489-.051l4.6,12.254H32.542l4.6-12.254a3.115,3.115,0,0,0,.489.051,3.051,3.051,0,1,0,0-6.1Z" transform="translate(0 0)" fill="url(#a)"/></svg>