<svg xmlns="http://www.w3.org/2000/svg" width="16.28" height="18" viewBox="0 0 16.28 18">
  <g id="Group_9098" data-name="Group 9098" transform="translate(0 0)">
    <path id="arrow-right-solid" d="M8.207.611,8.671.147a.5.5,0,0,1,.709,0l4.064,4.062a.5.5,0,0,1,0,.709L9.38,8.982a.5.5,0,0,1-.709,0l-.464-.464A.5.5,0,0,1,8.216,7.8l2.519-2.4H.5A.5.5,0,0,1,0,4.9V4.23a.5.5,0,0,1,.5-.5H10.735l-2.519-2.4A.5.5,0,0,1,8.207.611Z" transform="translate(0 8.871)" fill="#4192ff"/>
    <path id="arrow-right-solid-2" data-name="arrow-right-solid" d="M8.207.611,8.671.147a.5.5,0,0,1,.709,0l4.064,4.062a.5.5,0,0,1,0,.709L9.38,8.982a.5.5,0,0,1-.709,0l-.464-.464A.5.5,0,0,1,8.216,7.8l2.519-2.4H.5A.5.5,0,0,1,0,4.9V4.23a.5.5,0,0,1,.5-.5H10.735l-2.519-2.4A.5.5,0,0,1,8.207.611Z" transform="translate(16.28 9.129) rotate(180)" fill="#fff"/>
  </g>
</svg>
