<svg xmlns="http://www.w3.org/2000/svg" width="22.5" height="20" viewBox="0 0 22.5 20"><g transform="translate(-0.003)"><path d="M22.25,17.188,12.878.938a1.876,1.876,0,0,0-3.248,0L.256,17.188A1.876,1.876,0,0,0,1.88,20H20.626A1.876,1.876,0,0,0,22.25,17.188Zm-11,.313a1.25,1.25,0,1,1,1.25-1.25A1.25,1.25,0,0,1,11.253,17.5Zm1.494-9.313-.5,5a.625.625,0,0,1-.622.563h-.742a.625.625,0,0,1-.622-.563l-.5-5a.625.625,0,0,1,.62-.687h1.744a.625.625,0,0,1,.622.687Z" fill="#ff557c"/><path d="M252.049,192h-1.744a.625.625,0,0,0-.622.687l.5,5a.625.625,0,0,0,.622.563h.742a.625.625,0,0,0,.622-.563l.5-5a.625.625,0,0,0-.62-.687Zm-.872,7.5a1.25,1.25,0,1,0,1.25,1.25A1.25,1.25,0,0,0,251.178,199.5Z" transform="translate(-239.924 -184.5)" fill="#fff"/></g></svg>