<svg xmlns="http://www.w3.org/2000/svg" width="12" height="12" viewBox="0 0 12 12"><g transform="translate(-1221 -975.619)"><path d="M6,12a6,6,0,1,1,6-6A6.006,6.006,0,0,1,6,12ZM3.332,5.431h0a.42.42,0,0,0-.419.42V8.671a.413.413,0,0,0,.121.3.419.419,0,0,0,.3.125l2.817,0a.42.42,0,0,0,.42-.42v-.55a.419.419,0,0,0-.419-.42H4.3V5.862a.421.421,0,0,0-.42-.43H3.332ZM5.862,4.3H7.7V6.141a.421.421,0,0,0,.42.429h.55a.42.42,0,0,0,.42-.419V3.332a.413.413,0,0,0-.121-.3.419.419,0,0,0-.3-.124H5.852a.421.421,0,0,0-.42.42v.551a.418.418,0,0,0,.419.42h.011Z" transform="translate(1220.999 975.618)" fill="#788686" opacity="1"/></g></svg>