<svg xmlns="http://www.w3.org/2000/svg" width="12" height="10.5" viewBox="0 0 12 10.5"><g transform="translate(0 -32)"><path d="M5.25,163.75v3.75H1.5a.75.75,0,0,1-.75-.75v-3Zm0-3.75H.75a.75.75,0,0,0-.75.75v1.875A.375.375,0,0,0,.375,163H5.25Zm6,0H6.75v3h4.875a.375.375,0,0,0,.375-.375V160.75A.75.75,0,0,0,11.25,160Zm-4.5,7.5H10.5a.75.75,0,0,0,.75-.75v-3H6.75Z" transform="translate(0 -125)" fill="#9aa3a7"/><path d="M67.75,42.5h1.5V38.75h-1.5ZM70.927,32c-.98,0-1.614.5-2.427,1.6-.813-1.1-1.447-1.6-2.427-1.6A2.071,2.071,0,0,0,64,34.063a2.007,2.007,0,0,0,.238.938h1.833a.938.938,0,0,1,0-1.875c.469,0,.815.077,2.029,1.875H67.75v3h1.5V35H68.9c1.211-1.793,1.547-1.875,2.029-1.875a.938.938,0,1,1,0,1.875h1.835A2.036,2.036,0,0,0,73,34.063,2.071,2.071,0,0,0,70.927,32Z" transform="translate(-62.5)" fill="#fff"/></g></svg>