<svg xmlns="http://www.w3.org/2000/svg" xmlns:xlink="http://www.w3.org/1999/xlink" width="37" height="42" viewBox="0 0 37 42"><defs><filter id="a" x="0" y="0" width="37" height="42" filterUnits="userSpaceOnUse"><feOffset dx="-3" dy="3" input="SourceAlpha"/><feGaussianBlur stdDeviation="3" result="b"/><feFlood flood-opacity="0.502"/><feComposite operator="in" in2="b"/><feComposite in="SourceGraphic"/></filter><filter id="c" x="0" y="0" width="37" height="42" filterUnits="userSpaceOnUse"><feOffset dy="3" input="SourceAlpha"/><feGaussianBlur stdDeviation="3" result="d"/><feFlood flood-opacity="0.161" result="e"/><feComposite operator="out" in="SourceGraphic" in2="d"/><feComposite operator="in" in="e"/><feComposite operator="in" in2="SourceGraphic"/></filter><filter id="f" x="15" y="14" width="13" height="13" filterUnits="userSpaceOnUse"><feOffset dy="-1" input="SourceAlpha"/><feGaussianBlur stdDeviation="1" result="g"/><feFlood flood-color="#bfc1c3" result="h"/><feComposite operator="out" in="SourceGraphic" in2="g"/><feComposite operator="in" in="h"/><feComposite operator="in" in2="SourceGraphic"/></filter></defs><g transform="translate(12 6)"><g data-type="innerShadowGroup"><g transform="matrix(1, 0, 0, 1, -12, -6)" filter="url(#a)"><path d="M0,14.5A9.5,9.5,0,0,1,6.25,5.571L9.5,0l3.25,5.571A9.5,9.5,0,1,1,0,14.5Z" transform="translate(12 6)" fill="#797979"/></g><g transform="matrix(1, 0, 0, 1, -12, -6)" filter="url(#c)"><path d="M0,14.5A9.5,9.5,0,0,1,6.25,5.571L9.5,0l3.25,5.571A9.5,9.5,0,1,1,0,14.5Z" transform="translate(12 6)" fill="#fff"/></g></g><path d="M0,11.716V0H11V11.717a9.5,9.5,0,0,1-11,0Z" transform="translate(4 10.53)" fill="#fff" opacity="0.25"/><g data-type="innerShadowGroup"><g transform="translate(3 8)" fill="#797979"><path d="M6.5,0A6.5,6.5,0,1,1,0,6.5,6.5,6.5,0,0,1,6.5,0Z" stroke="none"/><path d="M 6.5 3 C 4.570090293884277 3 3 4.570090293884277 3 6.5 C 3 8.429910659790039 4.570090293884277 10 6.5 10 C 8.429910659790039 10 10 8.429910659790039 10 6.5 C 10 4.570090293884277 8.429910659790039 3 6.5 3 M 6.5 0 C 10.0898494720459 0 13 2.910149574279785 13 6.5 C 13 10.0898494720459 10.0898494720459 13 6.5 13 C 2.910149574279785 13 0 10.0898494720459 0 6.5 C 0 2.910149574279785 2.910149574279785 0 6.5 0 Z" stroke="none"/></g><g transform="matrix(1, 0, 0, 1, -12, -6)" filter="url(#f)"><g transform="translate(15 14)" fill="#fff"><path d="M6.5,0A6.5,6.5,0,1,1,0,6.5,6.5,6.5,0,0,1,6.5,0Z" stroke="none"/><path d="M 6.5 3 C 4.570090293884277 3 3 4.570090293884277 3 6.5 C 3 8.429910659790039 4.570090293884277 10 6.5 10 C 8.429910659790039 10 10 8.429910659790039 10 6.5 C 10 4.570090293884277 8.429910659790039 3 6.5 3 M 6.5 0 C 10.0898494720459 0 13 2.910149574279785 13 6.5 C 13 10.0898494720459 10.0898494720459 13 6.5 13 C 2.910149574279785 13 0 10.0898494720459 0 6.5 C 0 2.910149574279785 2.910149574279785 0 6.5 0 Z" stroke="none"/></g></g><g transform="translate(3 8)" fill="none"><path d="M6.5,0A6.5,6.5,0,1,1,0,6.5,6.5,6.5,0,0,1,6.5,0Z" stroke="none"/><path d="M 6.5 3 C 4.570090293884277 3 3 4.570090293884277 3 6.5 C 3 8.429910659790039 4.570090293884277 10 6.5 10 C 8.429910659790039 10 10 8.429910659790039 10 6.5 C 10 4.570090293884277 8.429910659790039 3 6.5 3 M 6.5 0 C 10.0898494720459 0 13 2.910149574279785 13 6.5 C 13 10.0898494720459 10.0898494720459 13 6.5 13 C 2.910149574279785 13 0 10.0898494720459 0 6.5 C 0 2.910149574279785 2.910149574279785 0 6.5 0 Z" stroke="none" fill="rgba(0,0,0,0.65)"/></g></g><path d="M3.5,0,7,6,4,5Z" transform="translate(6)" fill="rgba(255,255,255,0.25)"/></g></svg>