<svg xmlns="http://www.w3.org/2000/svg" width="12" height="12" viewBox="0 0 12 12"><g transform="translate(-8 -8)"><path d="M11.234,17.489a4.452,4.452,0,1,0-.284-6.733l1.228,1.228a.387.387,0,0,1-.274.661H8.387A.387.387,0,0,1,8,12.258V8.741a.387.387,0,0,1,.661-.274L9.855,9.662a6,6,0,1,1,.379,9.01.581.581,0,0,1-.045-.862l.273-.273A.581.581,0,0,1,11.234,17.489Z" transform="translate(0 0)" fill="#9aa3a7"/><path d="M225.548,128.581v2.525l.985.766a.581.581,0,0,1,.1.815l-.238.305a.581.581,0,0,1-.815.1L224,131.863v-3.282a.581.581,0,0,1,.581-.581h.387A.581.581,0,0,1,225.548,128.581Z" transform="translate(-210.774 -117.097)" fill="#fff"/></g></svg>