<svg xmlns="http://www.w3.org/2000/svg" width="10.5" height="14" viewBox="0 0 10.5 14"><path d="M93.688,64c0,2.118-1.263,3.938-2.844,3.938S88,66.119,88,64Z" transform="translate(-85.594 -62.25)" fill="#fff"/><path d="M9.844,1.75a.656.656,0,0,0,.656-.656V.656A.656.656,0,0,0,9.844,0H.656A.656.656,0,0,0,0,.656v.437a.656.656,0,0,0,.656.656A5.425,5.425,0,0,0,3.96,7a5.425,5.425,0,0,0-3.3,5.25A.656.656,0,0,0,0,12.906v.437A.656.656,0,0,0,.656,14H9.844a.656.656,0,0,0,.656-.656v-.437a.656.656,0,0,0-.656-.656A5.425,5.425,0,0,0,6.54,7,5.425,5.425,0,0,0,9.844,1.75Zm-1.75,10.5H2.406c0-2.118,1.263-3.937,2.844-3.937S8.094,10.131,8.094,12.25ZM5.25,5.688c-1.58,0-2.844-1.819-2.844-3.937H8.094C8.094,3.868,6.83,5.688,5.25,5.688Z" transform="translate(0)" fill="#9aa3a7"/></svg>