<svg xmlns="http://www.w3.org/2000/svg" width="55.389" height="35.997" viewBox="0 0 55.389 35.997"><path d="M36.885,35.443c-1.382-.493-3.639-.518-4.638-.9a6.553,6.553,0,0,1-2.146-1c-.358-.432-.358-3.516-.358-3.516A5.679,5.679,0,0,0,30.964,28.3a19.194,19.194,0,0,0,.592-3.392s.814.345,1.135-1.283c.271-1.406.79-2.146.654-3.183s-.715-.79-.715-.79.715-1.049.715-4.614c0-3.676-2.776-7.291-7.969-7.291s-7.981,3.627-7.981,7.291c0,3.565.7,4.614.7,4.614s-.58-.247-.715.79.37,1.776.654,3.183c.321,1.641,1.135,1.283,1.135,1.283a19.379,19.379,0,0,0,.592,3.392,5.679,5.679,0,0,0,1.221,1.727s0,3.084-.358,3.516a6.307,6.307,0,0,1-2.146.987c-.987.382-3.244.432-4.638.925a8.706,8.706,0,0,0-5.65,8.29H42.523A8.689,8.689,0,0,0,36.885,35.443Z" transform="translate(2.294 -7.748)" fill="#fff"/><path d="M15.6,26.825s2.948-.1,4.12-1.147c-1.912-2.9-.876-6.279-1.271-9.437s-2.183-5.033-5.761-5.033h-.049c-3.454,0-5.317,1.875-5.712,5.033s.7,6.908-1.258,9.437C6.841,26.739,9.8,26.7,9.8,26.7h0a6.248,6.248,0,0,1-.123,2.072,3.115,3.115,0,0,1-1.48.678,28.622,28.622,0,0,0-3.2.888A5.194,5.194,0,0,0,2.215,34.93h9.906c.271-.987,2.134-2.751,3.948-3.676a8.284,8.284,0,0,1,3.047-.641s.469-.74-1.073-1.024a10.516,10.516,0,0,1-2.369-.827C15.439,28.491,15.6,26.825,15.6,26.825Z" transform="translate(-2.215 -5.138)" fill="#ffba00"/><path d="M27.928,26.825s-2.948-.1-4.12-1.147c1.912-2.9.876-6.279,1.271-9.437s2.183-5.033,5.761-5.033h.049c3.454,0,5.317,1.875,5.712,5.033s-.7,6.908,1.258,9.437c-1.172,1.061-4.133,1.024-4.133,1.024h0a6.248,6.248,0,0,0,.123,2.072,3.115,3.115,0,0,0,1.48.678,28.622,28.622,0,0,1,3.2.888,5.194,5.194,0,0,1,2.788,4.589H31.407c-.271-.987-2.134-2.751-3.948-3.676a8.284,8.284,0,0,0-3.047-.641s-.469-.74,1.073-1.024a10.516,10.516,0,0,0,2.369-.827C28.088,28.491,27.928,26.825,27.928,26.825Z" transform="translate(14.076 -5.138)" fill="#ffba00"/></svg>