<svg xmlns="http://www.w3.org/2000/svg" width="9" height="12" viewBox="0 0 9 12"><path d="M69.25,0a.75.75,0,0,0-.75.75v3H70v-3A.75.75,0,0,0,69.25,0Zm-4.5,0A.75.75,0,0,0,64,.75v3h1.5v-3A.75.75,0,0,0,64.75,0Z" transform="translate(-62.5)" fill="#9aa3a7"/><path d="M9,160.375v.75a.375.375,0,0,1-.375.375H8.25v.75a3.751,3.751,0,0,1-3,3.675v2.325H3.75v-2.325a3.752,3.752,0,0,1-3-3.675v-.75H.375A.375.375,0,0,1,0,161.125v-.75A.375.375,0,0,1,.375,160h8.25A.375.375,0,0,1,9,160.375Z" transform="translate(0 -156.25)" fill="#fff"/></svg>