<svg xmlns="http://www.w3.org/2000/svg" width="38.25" height="36" viewBox="0 0 38.25 36"><path d="M22.7,22.5ZM5.616,21.378l-.342-.892a3.933,3.933,0,0,1-1.824.035.646.646,0,0,1-.432-.9l.544-1.22a.668.668,0,0,1,.671-.373,1.4,1.4,0,0,0,.562-.088l1.652-.634a.454.454,0,0,0-.2-.876l-2.8.247A3.17,3.17,0,0,1,.364,15.1a3.037,3.037,0,0,1,1.265-4.128l-.34-.886a.865.865,0,0,1,.5-1.115l.806-.31a.866.866,0,0,1,1.115.5l.343.892a3.934,3.934,0,0,1,1.824-.036.648.648,0,0,1,.432.9l-.544,1.22a.67.67,0,0,1-.671.373,1.37,1.37,0,0,0-.562.088l-1.653.634a.454.454,0,0,0,.2.876l2.8-.247A3.167,3.167,0,0,1,8.96,15.434a3.038,3.038,0,0,1-1.266,4.128l.341.886a.867.867,0,0,1-.5,1.116l-.806.31a.857.857,0,0,1-.307.057A.867.867,0,0,1,5.616,21.378Zm25.368-.839-.5-.155a.528.528,0,0,1-.351-.658l.171-.558a2.407,2.407,0,0,1-.892-.67.4.4,0,0,1,.131-.594l.72-.383a.409.409,0,0,1,.464.073.857.857,0,0,0,.3.169l1.033.316a.277.277,0,0,0,.232-.5l-1.438-.933a1.934,1.934,0,0,1-.893-1.917,1.854,1.854,0,0,1,2.161-1.51l.17-.555a.529.529,0,0,1,.658-.35l.5.154a.53.53,0,0,1,.35.659l-.171.558a2.407,2.407,0,0,1,.892.669.4.4,0,0,1-.131.595l-.72.382a.407.407,0,0,1-.464-.073.857.857,0,0,0-.3-.168l-1.034-.316a.277.277,0,0,0-.231.5l1.438.932a1.934,1.934,0,0,1,.892,1.918,1.854,1.854,0,0,1-2.161,1.51l-.169.555a.531.531,0,0,1-.506.373A.523.523,0,0,1,30.984,20.539ZM18.919,18a1.129,1.129,0,0,1-1.125-1.125V15.63a5.135,5.135,0,0,1-2.236-.808.844.844,0,0,1-.105-1.294l1.23-1.23a.871.871,0,0,1,.991-.14,1.817,1.817,0,0,0,.725.155h2.307a.591.591,0,0,0,.161-1.16l-3.515-1.006a4.126,4.126,0,0,1-3.017-3.353A3.957,3.957,0,0,1,17.8,2.362V1.125A1.128,1.128,0,0,1,18.926,0h1.125a1.129,1.129,0,0,1,1.125,1.125V2.37a5.135,5.135,0,0,1,2.236.808.844.844,0,0,1,.106,1.294L22.287,5.7a.871.871,0,0,1-.991.14,1.817,1.817,0,0,0-.725-.155H18.266a.591.591,0,0,0-.162,1.16l3.515,1.006a4.125,4.125,0,0,1,3.017,3.353,3.957,3.957,0,0,1-3.467,4.43v1.237A1.128,1.128,0,0,1,20.044,18Z" transform="translate(0.761)" fill="#ffba00"/><path d="M37.54,23.07a2.112,2.112,0,0,0-2.834,0l-6.131,5.2a4.089,4.089,0,0,1-2.658.984H18.063a1.127,1.127,0,0,1,0-2.25h5.2a2.252,2.252,0,0,0,.113-4.5H12.748a7.518,7.518,0,0,0-4.915,1.849L4.746,27H1.062A1.1,1.1,0,0,0,0,28.125v6.75A1.1,1.1,0,0,0,1.062,36H24.75a4.117,4.117,0,0,0,2.658-.984l10.041-8.508a2.336,2.336,0,0,0,.091-3.438Z" fill="#fff"/></svg>