<svg xmlns="http://www.w3.org/2000/svg" width="140" height="41.36" viewBox="0 0 140 41.36"><g transform="translate(0 0)"><g transform="translate(46.083 11.723)"><path d="M142.684,52.478a14.689,14.689,0,0,0,6.433,1.967c1.117,0,1.916-.4,1.916-1.383,0-1.38-1.542-1.38-3.987-2.233-2.925-1.009-4.945-2.437-4.945-5.556,0-3.748,2.9-6.113,7.2-6.113a15.1,15.1,0,0,1,6.286,1.41v5.05a14.52,14.52,0,0,0-6.221-1.916c-1.009,0-1.7.32-1.7,1.17,0,1.248,1.5,1.248,3.829,2.075,2.994,1.063,5.1,2.55,5.1,5.8,0,3.892-3.059,6.247-7.523,6.247a15.692,15.692,0,0,1-6.382-1.383Z" transform="translate(-142.1 -39.16)" fill="#fff"/><path d="M283.81,40.14h6.247a13.077,13.077,0,0,1,5.8,1.009,5.707,5.707,0,0,1,3.35,5.424,5.566,5.566,0,0,1-2.871,5.089,12.186,12.186,0,0,1-6.17,1.3h-.877V59.4H283.81Zm6.46,8.681a5.894,5.894,0,0,0,2.473-.347,1.85,1.85,0,0,0,.982-1.8,1.881,1.881,0,0,0-1.063-1.835,5.939,5.939,0,0,0-2.55-.344h-.826v4.308Z" transform="translate(-241.389 -39.847)" fill="#fff"/><path d="M199.756,44.693l-.389-.6h0l-2.643-3.954H190.3l6.355,8.939L189.77,59.394h6.655l5.595-11.166Zm8.061,14.692V56.508l-5.475-7.933v10.81Z" transform="translate(-175.5 -39.847)" fill="#fff"/><path d="M258,40.14h5.475V59.385H258Z" transform="translate(-223.305 -39.847)" fill="#fff"/><g transform="translate(26.843 0.293)"><path d="M342.33,40.14h5.475V59.385H342.33Z" transform="translate(-309.234 -40.14)" fill="#419ad7"/><path d="M370.74,40.14h5.532c3.987,0,6.99.665,9.037,2.206a8.906,8.906,0,0,1,3.293,7.442,9.013,9.013,0,0,1-2.739,6.939c-1.913,1.727-4.865,2.658-9.489,2.658H370.74Zm5.688,14.62c3.481,0,4.891-.691,5.715-1.676a5.1,5.1,0,0,0,.985-3.293,4.623,4.623,0,0,0-1.649-3.933c-1.171-.877-2.925-1.09-5.089-1.09h-.183v10Z" transform="translate(-329.139 -40.14)" fill="#419ad7"/><path d="M231.77,40.14v5.61l5.475,7.933V40.14Z" transform="translate(-231.77 -40.14)" fill="#419ad7"/><path d="M446.553,61.416l-1.907-2.9a.994.994,0,0,0-1.826.548v5.8a.994.994,0,0,0,1.826.548l1.907-2.9A.994.994,0,0,0,446.553,61.416Z" transform="translate(-379.642 -52.699)" fill="#419ad7"/></g></g><path d="M35.944,10.9,25.8,5.042a7.756,7.756,0,0,0-7.765,0L7.892,10.9A7.762,7.762,0,0,0,4,17.623v11.72a7.759,7.759,0,0,0,3.892,6.723L18.04,41.928a7.783,7.783,0,0,0,7.765,0l10.148-5.861a7.759,7.759,0,0,0,3.892-6.723V17.623A7.762,7.762,0,0,0,35.944,10.9Z" transform="translate(-2.803 -2.803)" fill="#fff"/><path d="M19.111,0a8.965,8.965,0,0,1,4.482,1.2L33.74,7.06a8.981,8.981,0,0,1,4.5,7.759V26.54A8.98,8.98,0,0,1,33.747,34.3L23.6,40.162a8.981,8.981,0,0,1-8.961,0L4.49,34.3A8.979,8.979,0,0,1,0,26.541V14.821A8.984,8.984,0,0,1,4.492,7.06L14.629,1.2A8.965,8.965,0,0,1,19.111,0Zm.009,38.965a6.6,6.6,0,0,0,3.285-.878l10.146-5.86a6.58,6.58,0,0,0,3.293-5.687V14.821a6.581,6.581,0,0,0-3.3-5.685L22.394,3.276a6.559,6.559,0,0,0-6.567,0L5.688,9.134a6.583,6.583,0,0,0-3.293,5.687V26.54a6.579,6.579,0,0,0,3.291,5.685l10.15,5.862A6.593,6.593,0,0,0,19.12,38.965Z" transform="translate(0 0)" fill="#419ad7"/><g transform="translate(9.858 11.143)"><path d="M60.526,62.777a1.554,1.554,0,0,1,1.081,2.6,1.4,1.4,0,0,0-.377.949V68.3a.778.778,0,0,1-.775.781.763.763,0,0,1-.754-.763V66.328a1.338,1.338,0,0,0-.362-.931,1.554,1.554,0,0,1,1.188-2.619Z" transform="translate(-51.135 -55.127)" fill="#419ad7"/><path d="M65.163,47.1a.638.638,0,0,1-.638-.638,7.978,7.978,0,0,0-10.247-7.636.638.638,0,1,1-.362-1.221A9.253,9.253,0,0,1,65.8,46.463a.638.638,0,0,1-.638.638Z" transform="translate(-47.295 -37.224)" fill="#353434"/><path d="M50.143,60.956a4.649,4.649,0,1,1,5.885-.051.638.638,0,1,1-.817-.979,3.371,3.371,0,1,0-4.254.036.638.638,0,1,1-.8.994Z" transform="translate(-43.773 -48.055)" fill="#353434"/><g transform="translate(2.272 2.281)"><path d="M47.528,58.866a7.01,7.01,0,1,1,4.427-12.447.641.641,0,1,1-.814.991,5.732,5.732,0,1,0-3.613,10.181.638.638,0,1,1,0,1.275Z" transform="translate(-40.52 -44.842)" fill="#353434"/><path d="M74.356,72.311a.635.635,0,0,1,.144-.9,5.736,5.736,0,0,0,2.395-4.655.638.638,0,0,1,1.275,0,7.01,7.01,0,0,1-2.912,5.687.635.635,0,0,1-.9-.134Z" transform="translate(-64.139 -59.75)" fill="#353434"/></g><path d="M42.21,76.227a9.28,9.28,0,0,1-9.28-9.28.638.638,0,1,1,1.275,0A8,8,0,0,0,47.35,73.084a.638.638,0,1,1,.817.979A9.28,9.28,0,0,1,42.21,76.227Z" transform="translate(-32.93 -57.603)" fill="#353434"/></g></g></svg>