<svg xmlns="http://www.w3.org/2000/svg" xmlns:xlink="http://www.w3.org/1999/xlink" viewBox="12 6 19 19"><defs><style>.a{fill:#797979;}.b,.c{fill:#fff;}.c{opacity:0.25;}.d{fill:none;}.e{fill:rgba(255,255,255,0.25);}.f,.g{stroke:none;}.g{fill:rgba(0,0,0,0.65);}.h{filter:url(#f);}.i{filter:url(#c);}.j{filter:url(#a);}</style><filter id="a" x="0" y="0" width="37" height="37" filterUnits="userSpaceOnUse"><feOffset dx="-3" dy="3" input="SourceAlpha"/><feGaussianBlur stdDeviation="3" result="b"/><feFlood flood-opacity="0.502"/><feComposite operator="in" in2="b"/><feComposite in="SourceGraphic"/></filter><filter id="c" x="0" y="0" width="37" height="37" filterUnits="userSpaceOnUse"><feOffset dy="3" input="SourceAlpha"/><feGaussianBlur stdDeviation="3" result="d"/><feFlood flood-opacity="0.161" result="e"/><feComposite operator="out" in="SourceGraphic" in2="d"/><feComposite operator="in" in="e"/><feComposite operator="in" in2="SourceGraphic"/></filter><filter id="f" x="15" y="9" width="13" height="13" filterUnits="userSpaceOnUse"><feOffset dy="-1" input="SourceAlpha"/><feGaussianBlur stdDeviation="1" result="g"/><feFlood flood-color="#bfc1c3" result="h"/><feComposite operator="out" in="SourceGraphic" in2="g"/><feComposite operator="in" in="h"/><feComposite operator="in" in2="SourceGraphic"/></filter></defs><g transform="translate(12 6)"><g data-type="innerShadowGroup"><g class="j" transform="matrix(1, 0, 0, 1, -12, -6)"><path class="a" d="M9.5,0A9.5,9.5,0,1,1,0,9.5,9.5,9.5,0,0,1,9.5,0Z" transform="translate(12 6)"/></g><g class="i" transform="matrix(1, 0, 0, 1, -12, -6)"><path class="b" d="M9.5,0A9.5,9.5,0,1,1,0,9.5,9.5,9.5,0,0,1,9.5,0Z" transform="translate(12 6)"/></g></g><path class="c" d="M0,11.716V1H11V11.717a9.5,9.5,0,0,1-11,0Z" transform="translate(4 5.53)"/><g data-type="innerShadowGroup"><g class="a" transform="translate(3 3)"><path class="f" d="M6.5,0A6.5,6.5,0,1,1,0,6.5,6.5,6.5,0,0,1,6.5,0Z"/><path class="f" d="M 6.5 3 C 4.570090293884277 3 3 4.570090293884277 3 6.5 C 3 8.429910659790039 4.570090293884277 10 6.5 10 C 8.429910659790039 10 10 8.429910659790039 10 6.5 C 10 4.570090293884277 8.429910659790039 3 6.5 3 M 6.5 0 C 10.0898494720459 0 13 2.910149574279785 13 6.5 C 13 10.0898494720459 10.0898494720459 13 6.5 13 C 2.910149574279785 13 0 10.0898494720459 0 6.5 C 0 2.910149574279785 2.910149574279785 0 6.5 0 Z"/></g><g class="h" transform="matrix(1, 0, 0, 1, -12, -6)"><g class="b" transform="translate(15 9)"><path class="f" d="M6.5,0A6.5,6.5,0,1,1,0,6.5,6.5,6.5,0,0,1,6.5,0Z"/><path class="f" d="M 6.5 3 C 4.570090293884277 3 3 4.570090293884277 3 6.5 C 3 8.429910659790039 4.570090293884277 10 6.5 10 C 8.429910659790039 10 10 8.429910659790039 10 6.5 C 10 4.570090293884277 8.429910659790039 3 6.5 3 M 6.5 0 C 10.0898494720459 0 13 2.910149574279785 13 6.5 C 13 10.0898494720459 10.0898494720459 13 6.5 13 C 2.910149574279785 13 0 10.0898494720459 0 6.5 C 0 2.910149574279785 2.910149574279785 0 6.5 0 Z"/></g></g><g class="d" transform="translate(3 3)"><path class="f" d="M6.5,0A6.5,6.5,0,1,1,0,6.5,6.5,6.5,0,0,1,6.5,0Z"/><path class="g" d="M 6.5 3 C 4.570090293884277 3 3 4.570090293884277 3 6.5 C 3 8.429910659790039 4.570090293884277 10 6.5 10 C 8.429910659790039 10 10 8.429910659790039 10 6.5 C 10 4.570090293884277 8.429910659790039 3 6.5 3 M 6.5 0 C 10.0898494720459 0 13 2.910149574279785 13 6.5 C 13 10.0898494720459 10.0898494720459 13 6.5 13 C 2.910149574279785 13 0 10.0898494720459 0 6.5 C 0 2.910149574279785 2.910149574279785 0 6.5 0 Z"/></g></g><path class="e" d="M7,6,4,5Z" transform="translate(6 -5)"/></g></svg>