<svg xmlns="http://www.w3.org/2000/svg" width="12" height="12" viewBox="0 0 12 12"><g transform="translate(0 -32)"><path d="M10.714,32H1.286A1.286,1.286,0,0,0,0,33.286v9.429A1.286,1.286,0,0,0,1.286,44h9.429A1.286,1.286,0,0,0,12,42.714V33.286A1.286,1.286,0,0,0,10.714,32Zm-.429,8.679A.321.321,0,0,1,9.964,41H8.571v.643a.641.641,0,0,1-.643.643H7.5a.641.641,0,0,1-.643-.643V41H2.036a.321.321,0,0,1-.321-.321V39.607a.321.321,0,0,1,.321-.321H6.857v-.643A.641.641,0,0,1,7.5,38h.429a.641.641,0,0,1,.643.643v.643H9.964a.321.321,0,0,1,.321.321Zm0-4.286a.321.321,0,0,1-.321.321H5.143v.643A.641.641,0,0,1,4.5,38H4.071a.641.641,0,0,1-.643-.643v-.643H2.036a.321.321,0,0,1-.321-.321V35.321A.321.321,0,0,1,2.036,35H3.429v-.643a.641.641,0,0,1,.643-.643H4.5a.641.641,0,0,1,.643.643V35H9.964a.321.321,0,0,1,.321.321Z" fill="#bfc1c3"/><path d="M129.071,100.286a.641.641,0,0,0,.643-.643v-3a.641.641,0,0,0-.643-.643h-.429a.641.641,0,0,0-.643.643v3a.641.641,0,0,0,.643.643Zm3,4.286h.429a.641.641,0,0,0,.643-.643v-3a.641.641,0,0,0-.643-.643h-.429a.641.641,0,0,0-.643.643v3a.641.641,0,0,0,.643.643Z" transform="translate(-124.571 -62.286)" fill="#fff"/></g></svg>