<svg xmlns="http://www.w3.org/2000/svg" xmlns:xlink="http://www.w3.org/1999/xlink" viewBox="12 6 19 19">
  <defs>
    <filter id="Union_5" x="0" y="0" width="37" height="37" filterUnits="userSpaceOnUse">
      <feOffset dx="-3" dy="3" input="SourceAlpha"/>
      <feGaussianBlur stdDeviation="3" result="blur"/>
      <feFlood flood-opacity="0.502"/>
      <feComposite operator="in" in2="blur"/>
      <feComposite in="SourceGraphic"/>
    </filter>
    <filter id="Union_5-2" x="0" y="0" width="37" height="37" filterUnits="userSpaceOnUse">
      <feOffset dy="3" input="SourceAlpha"/>
      <feGaussianBlur stdDeviation="3" result="blur-2"/>
      <feFlood flood-opacity="0.161" result="color"/>
      <feComposite operator="out" in="SourceGraphic" in2="blur-2"/>
      <feComposite operator="in" in="color"/>
      <feComposite operator="in" in2="SourceGraphic"/>
    </filter>
    <filter id="Path_2719" x="15" y="9" width="13" height="13" filterUnits="userSpaceOnUse">
      <feOffset dy="-1" input="SourceAlpha"/>
      <feGaussianBlur stdDeviation="1" result="blur-3"/>
      <feFlood flood-color="#bfc1c3" result="color-2"/>
      <feComposite operator="out" in="SourceGraphic" in2="blur-3"/>
      <feComposite operator="in" in="color-2"/>
      <feComposite operator="in" in2="SourceGraphic"/>
    </filter>
  </defs>
  <g id="Group_2454" data-name="Group 2454" transform="translate(12 6)">
    <g id="Group_2452" data-name="Group 2452">
      <g data-type="innerShadowGroup">
        <g transform="matrix(1, 0, 0, 1, -12, -6)" filter="url(#Union_5)">
          <path id="Union_5-3" data-name="Union 5" d="M9.5,0A9.5,9.5,0,1,1,0,9.5,9.5,9.5,0,0,1,9.5,0Z" transform="translate(12 6)" fill="#efefef"/>
        </g>
        <g transform="matrix(1, 0, 0, 1, -12, -6)" filter="url(#Union_5-2)">
          <path id="Union_5-4" data-name="Union 5" d="M9.5,0A9.5,9.5,0,1,1,0,9.5,9.5,9.5,0,0,1,9.5,0Z" transform="translate(12 6)" fill="#fff"/>
        </g>
      </g>
      <path id="Intersection_2" data-name="Intersection 2" d="M0,11.716V1H11V11.717a9.5,9.5,0,0,1-11,0Z" transform="translate(4 5.53)" fill="#fff" opacity="0.5"/>
      <g data-type="innerShadowGroup">
        <g id="Path_2719-2" data-name="Path 2719" transform="translate(3 3)" fill="#cdd1d3">
          <path d="M6.5,0A6.5,6.5,0,1,1,0,6.5,6.5,6.5,0,0,1,6.5,0Z" stroke="none"/>
          <path d="M 6.5 3 C 4.570090293884277 3 3 4.570090293884277 3 6.5 C 3 8.429910659790039 4.570090293884277 10 6.5 10 C 8.429910659790039 10 10 8.429910659790039 10 6.5 C 10 4.570090293884277 8.429910659790039 3 6.5 3 M 6.5 0 C 10.0898494720459 0 13 2.910149574279785 13 6.5 C 13 10.0898494720459 10.0898494720459 13 6.5 13 C 2.910149574279785 13 0 10.0898494720459 0 6.5 C 0 2.910149574279785 2.910149574279785 0 6.5 0 Z" stroke="none"/>
        </g>
        <g transform="matrix(1, 0, 0, 1, -12, -6)" filter="url(#Path_2719)">
          <g id="Path_2719-3" data-name="Path 2719" transform="translate(15 9)" fill="#fff">
            <path d="M6.5,0A6.5,6.5,0,1,1,0,6.5,6.5,6.5,0,0,1,6.5,0Z" stroke="none"/>
            <path d="M 6.5 3 C 4.570090293884277 3 3 4.570090293884277 3 6.5 C 3 8.429910659790039 4.570090293884277 10 6.5 10 C 8.429910659790039 10 10 8.429910659790039 10 6.5 C 10 4.570090293884277 8.429910659790039 3 6.5 3 M 6.5 0 C 10.0898494720459 0 13 2.910149574279785 13 6.5 C 13 10.0898494720459 10.0898494720459 13 6.5 13 C 2.910149574279785 13 0 10.0898494720459 0 6.5 C 0 2.910149574279785 2.910149574279785 0 6.5 0 Z" stroke="none"/>
          </g>
        </g>
        <g id="Path_2719-4" data-name="Path 2719" transform="translate(3 3)" fill="none">
          <path d="M6.5,0A6.5,6.5,0,1,1,0,6.5,6.5,6.5,0,0,1,6.5,0Z" stroke="none"/>
          <path d="M 6.5 3 C 4.570090293884277 3 3 4.570090293884277 3 6.5 C 3 8.429910659790039 4.570090293884277 10 6.5 10 C 8.429910659790039 10 10 8.429910659790039 10 6.5 C 10 4.570090293884277 8.429910659790039 3 6.5 3 M 6.5 0 C 10.0898494720459 0 13 2.910149574279785 13 6.5 C 13 10.0898494720459 10.0898494720459 13 6.5 13 C 2.910149574279785 13 0 10.0898494720459 0 6.5 C 0 2.910149574279785 2.910149574279785 0 6.5 0 Z" stroke="none" fill="rgba(124,124,124,0.56)"/>
        </g>
      </g>
      <path id="Path_2720" data-name="Path 2720" d="M7,6,4,5Z" transform="translate(6 -5)" fill="rgba(255,255,255,0.25)"/>
    </g>
  </g>
</svg>
