<svg xmlns="http://www.w3.org/2000/svg" width="17.143" height="12" viewBox="0 0 17.143 12"><path d="M2.571,37.143A1.714,1.714,0,1,0,.857,35.429a1.714,1.714,0,0,0,1.714,1.714Zm12,0a1.714,1.714,0,1,0-1.714-1.714A1.714,1.714,0,0,0,14.571,37.143Zm.857.857H13.714a1.708,1.708,0,0,0-1.207.5,3.925,3.925,0,0,1,2.012,2.931h1.766a.857.857,0,0,0,.857-.857v-.857A1.714,1.714,0,0,0,15.429,38ZM1.714,38A1.714,1.714,0,0,0,0,39.714v.857a.857.857,0,0,0,.857.857H2.623A3.925,3.925,0,0,1,4.636,38.5,1.708,1.708,0,0,0,3.429,38Zm6.857-6-1.286.643L6,32v2.143h5.143V32l-1.286.643Z" transform="translate(0 -32)" fill="#9aa3a7" opacity="0.4"/><path d="M133.143,147a2.571,2.571,0,0,0,2.571-2.571V144h-5.143v.429A2.571,2.571,0,0,0,133.143,147Zm2.057.857h-.223a4.141,4.141,0,0,1-3.669,0h-.223A3.086,3.086,0,0,0,128,150.943v.771A1.286,1.286,0,0,0,129.286,153H137a1.286,1.286,0,0,0,1.286-1.286v-.771A3.086,3.086,0,0,0,135.2,147.857Z" transform="translate(-124.571 -141)" fill="#fff"/></svg>