<svg width="17" height="20" viewBox="0 0 17 20" fill="none" xmlns="http://www.w3.org/2000/svg">
<g clip-path="url(#clip0_331_35)">
<path opacity="0.25" d="M14.188 5H2.1C1.54305 5 1.0089 5.22125 0.615078 5.61508C0.221251 6.0089 1.90312e-06 6.54305 1.90312e-06 7.1C-0.000261061 7.23819 0.0267298 7.37507 0.0794298 7.50281C0.13213 7.63056 0.209504 7.74666 0.307125 7.84446C0.404745 7.94227 0.520695 8.01986 0.648339 8.07281C0.775983 8.12575 0.912814 8.153 1.051 8.153H2.627C2.48763 8.153 2.35397 8.09764 2.25542 7.99908C2.15687 7.90053 2.1015 7.76687 2.1015 7.6275C2.1015 7.48813 2.15687 7.35447 2.25542 7.25592C2.35397 7.15737 2.48763 7.102 2.627 7.102H15.239C15.3782 7.102 15.5118 7.04669 15.6102 6.94823C15.7087 6.84977 15.764 6.71624 15.764 6.577C15.7641 6.36995 15.7235 6.16491 15.6443 5.97358C15.5652 5.78226 15.4491 5.6084 15.3028 5.46195C15.1564 5.3155 14.9826 5.19933 14.7913 5.12006C14.6001 5.0408 14.395 5 14.188 5V5Z" fill="#FFBA00"/>
<path d="M15.147 8.15305H1.051C0.772257 8.15305 0.504932 8.04232 0.307831 7.84522C0.11073 7.64812 0 7.38079 0 7.10205V17.6121C0 18.169 0.221249 18.7031 0.615076 19.097C1.0089 19.4908 1.54305 19.7121 2.1 19.7121H15.147C15.5769 19.7234 15.9938 19.5639 16.3065 19.2685C16.6191 18.9731 16.8019 18.5659 16.815 18.1361V9.72905C16.8019 9.29917 16.6191 8.89197 16.3065 8.5966C15.9938 8.30123 15.5769 8.14174 15.147 8.15305V8.15305Z" fill="#FFBA00"/>
<path d="M8.78398 12.8444L11.825 9.83137C11.8957 9.76072 11.9439 9.67071 11.9635 9.57269C11.9832 9.47466 11.9733 9.37303 11.9352 9.2806C11.8971 9.18817 11.8325 9.10909 11.7496 9.05335C11.6666 8.9976 11.5689 8.96768 11.469 8.96737L9.41398 8.96737L9.41398 1.40137C9.41398 1.26876 9.3613 1.14158 9.26753 1.04781C9.17376 0.954045 9.04659 0.901367 8.91398 0.901367L7.90098 0.901367C7.76837 0.901367 7.64119 0.954045 7.54742 1.04781C7.45366 1.14158 7.40098 1.26876 7.40098 1.40137L7.40098 8.96637L5.34598 8.96637C5.24601 8.96668 5.14838 8.9966 5.0654 9.05234C4.98242 9.10809 4.91781 9.18717 4.87973 9.2796C4.84164 9.37202 4.83179 9.47366 4.85141 9.57168C4.87103 9.66971 4.91925 9.75972 4.98998 9.83037L8.02798 12.8464C8.12868 12.946 8.26473 13.0017 8.40639 13.0014C8.54805 13.001 8.68381 12.9445 8.78398 12.8444V12.8444Z" fill="white"/>
</g>
<defs>
<clipPath id="clip0_331_35">
<rect width="16.816" height="20" fill="white"/>
</clipPath>
</defs>
</svg>
