<svg width="17" height="20" viewBox="0 0 17 20" fill="none" xmlns="http://www.w3.org/2000/svg">
<g clip-path="url(#clip0_331_41)">
<path opacity="0.25" d="M14.188 5H2.1C1.54305 5 1.0089 5.22125 0.615078 5.61508C0.221251 6.0089 1.90312e-06 6.54305 1.90312e-06 7.1C-0.000261061 7.23819 0.0267298 7.37507 0.0794298 7.50281C0.13213 7.63056 0.209504 7.74666 0.307125 7.84446C0.404745 7.94227 0.520695 8.01986 0.648339 8.07281C0.775983 8.12575 0.912814 8.153 1.051 8.153H2.627C2.48763 8.153 2.35397 8.09764 2.25542 7.99908C2.15687 7.90053 2.1015 7.76687 2.1015 7.6275C2.1015 7.48813 2.15687 7.35447 2.25542 7.25592C2.35397 7.15737 2.48763 7.102 2.627 7.102H15.239C15.3782 7.102 15.5118 7.04669 15.6102 6.94823C15.7087 6.84977 15.764 6.71624 15.764 6.577C15.7641 6.36995 15.7235 6.16491 15.6443 5.97358C15.5652 5.78226 15.4491 5.6084 15.3028 5.46195C15.1564 5.3155 14.9826 5.19933 14.7913 5.12006C14.6001 5.0408 14.395 5 14.188 5V5Z" fill="#FFBA00"/>
<path d="M15.147 8.15305H1.051C0.772257 8.15305 0.504932 8.04232 0.307831 7.84522C0.11073 7.64812 0 7.38079 0 7.10205V17.6121C0 18.169 0.221249 18.7031 0.615076 19.097C1.0089 19.4908 1.54305 19.7121 2.1 19.7121H15.147C15.5769 19.7234 15.9938 19.5639 16.3065 19.2685C16.6191 18.9731 16.8019 18.5659 16.815 18.1361V9.72905C16.8019 9.29917 16.6191 8.89197 16.3065 8.5966C15.9938 8.30123 15.5769 8.14174 15.147 8.15305V8.15305Z" fill="#FFBA00"/>
<path d="M8.03096 1.05798L4.98996 4.07098C4.91924 4.14162 4.87102 4.23164 4.8514 4.32966C4.83177 4.42768 4.84163 4.52932 4.87971 4.62175C4.91779 4.71418 4.9824 4.79325 5.06538 4.849C5.14836 4.90474 5.246 4.93466 5.34596 4.93498H7.40096V12.501C7.40096 12.6336 7.45364 12.7608 7.54741 12.8545C7.64118 12.9483 7.76836 13.001 7.90096 13.001H8.91396C9.04657 13.001 9.17375 12.9483 9.26752 12.8545C9.36128 12.7608 9.41396 12.6336 9.41396 12.501V4.93598H11.469C11.5689 4.93566 11.6666 4.90574 11.7495 4.85C11.8325 4.79425 11.8971 4.71518 11.9352 4.62275C11.9733 4.53032 11.9832 4.42868 11.9635 4.33066C11.9439 4.23264 11.8957 4.14262 11.825 4.07198L8.78696 1.05598C8.68626 0.956339 8.55021 0.900617 8.40855 0.900991C8.26689 0.901366 8.13114 0.957807 8.03096 1.05798V1.05798Z" fill="white"/>
</g>
<defs>
<clipPath id="clip0_331_41">
<rect width="16.816" height="20" fill="white"/>
</clipPath>
</defs>
</svg>
