<svg width="30" height="30" viewBox="0 0 30 30" fill="none" xmlns="http://www.w3.org/2000/svg">
<path d="M2.70268 15.9161C2.72565 15.925 2.74928 15.9309 2.77292 15.9381C2.81624 15.9512 2.85956 15.9624 2.90519 15.9696C2.917 15.9716 2.92816 15.9765 2.93998 15.9778C2.97969 15.9824 3.01875 15.9847 3.05781 15.9847C3.12345 15.9847 3.18844 15.9778 3.25211 15.965C3.29084 15.9571 3.32695 15.9433 3.36404 15.9312C3.388 15.9233 3.41261 15.9184 3.43592 15.9089C3.47793 15.8915 3.51666 15.8682 3.55539 15.8452C3.57147 15.8357 3.58919 15.8288 3.60495 15.8183C3.65878 15.7822 3.709 15.7412 3.75495 15.6952L6.27304 13.1771C6.65771 12.7928 6.65771 12.1692 6.27304 11.7848C5.8887 11.4001 5.26508 11.4001 4.88074 11.7848L4.38414 12.2814C5.59658 7.54522 9.90051 4.03328 15.0092 4.03328C19.2738 4.03328 23.1845 6.53594 24.972 10.4096C25.1994 10.9032 25.785 11.1185 26.2783 10.8911C26.7723 10.6633 26.9876 10.0781 26.7598 9.58444C24.6516 5.01596 20.0392 2.06396 15.0092 2.06396C8.89091 2.06396 3.75462 6.33507 2.41647 12.051L2.05641 11.4592C1.77349 10.9945 1.16793 10.8468 0.703168 11.13C0.238738 11.4126 0.0910399 12.0185 0.373964 12.4833L2.21658 15.5117C2.22019 15.5176 2.22545 15.5219 2.22906 15.5278C2.25958 15.5754 2.2947 15.6194 2.33277 15.6611C2.34164 15.6709 2.34886 15.6821 2.35805 15.6916C2.40662 15.7405 2.46012 15.7842 2.51822 15.8222C2.53332 15.8321 2.55005 15.839 2.56581 15.8482C2.60946 15.8738 2.65476 15.8974 2.70268 15.9161Z" fill="#9AA3A7"/>
<path d="M29.6261 17.5168L27.7835 14.4883C27.7802 14.4828 27.7753 14.4785 27.7717 14.4729C27.7405 14.424 27.7044 14.3787 27.6653 14.3361C27.6575 14.3272 27.6509 14.317 27.6427 14.3085C27.5941 14.2592 27.5403 14.2156 27.4822 14.1775C27.4674 14.1677 27.451 14.1611 27.4356 14.1522C27.3913 14.1263 27.3457 14.1027 27.2974 14.084C27.2744 14.0751 27.2508 14.0695 27.2272 14.0623C27.1838 14.0492 27.1405 14.038 27.0949 14.0308C27.0831 14.0288 27.0719 14.0239 27.0598 14.0226C27.0427 14.0206 27.026 14.0236 27.0089 14.0223C26.9866 14.0206 26.9653 14.0154 26.9426 14.0154C26.9226 14.0154 26.9042 14.02 26.8845 14.0213C26.854 14.0229 26.8241 14.0259 26.7939 14.0305C26.7519 14.0367 26.7119 14.0466 26.6718 14.058C26.6456 14.0656 26.6196 14.0725 26.5944 14.082C26.5501 14.0987 26.5084 14.1201 26.4673 14.1427C26.448 14.1536 26.428 14.1621 26.4093 14.1742C26.3502 14.2123 26.2947 14.2553 26.2451 14.3049L23.727 16.823C23.3424 17.2073 23.3424 17.8309 23.727 18.2153C24.1117 18.5999 24.7347 18.5999 25.1194 18.2153L25.6159 17.7187C24.4035 22.4549 20.0996 25.9668 14.9908 25.9668C10.5734 25.9668 6.60683 23.3374 4.88565 19.2685C4.67362 18.7677 4.09628 18.5323 3.59509 18.7453C3.09423 18.9574 2.85988 19.5347 3.07191 20.0359C5.10194 24.8351 9.78038 27.9361 14.9908 27.9361C21.1092 27.9361 26.2455 23.665 27.5836 17.9488L27.9437 18.5405C28.1288 18.8451 28.4534 19.0132 28.7856 19.0132C28.9598 19.0132 29.1364 18.9669 29.2966 18.8697C29.7614 18.5871 29.909 17.9816 29.6261 17.5168Z" fill="white"/>
</svg>
