<svg width="30" height="24" viewBox="0 0 30 24" fill="none" xmlns="http://www.w3.org/2000/svg">
<g clip-path="url(#clip0_331_21)">
<path opacity="0.25" d="M22.026 6H7.522C6.85312 6 6.21164 6.26571 5.73868 6.73868C5.26571 7.21164 5 7.85312 5 8.522C4.99987 8.68768 5.03239 8.85176 5.0957 9.00487C5.15901 9.15798 5.25188 9.29711 5.36898 9.41431C5.48609 9.53151 5.62515 9.62448 5.77821 9.68792C5.93126 9.75135 6.09532 9.784 6.261 9.784H8.153C7.99013 9.77751 7.83608 9.70825 7.72314 9.59071C7.61019 9.47318 7.54712 9.3165 7.54712 9.1535C7.54712 8.9905 7.61019 8.83382 7.72314 8.71629C7.83608 8.59875 7.99013 8.52949 8.153 8.523H23.287C23.4544 8.523 23.6148 8.45652 23.7332 8.33818C23.8515 8.21985 23.918 8.05935 23.918 7.892C23.918 7.39021 23.7187 6.90897 23.3638 6.55415C23.009 6.19934 22.5278 6 22.026 6Z" fill="#FFBA00"/>
<path opacity="0.1" d="M23.177 9.78297H6.261C5.92656 9.78297 5.60582 9.65012 5.36934 9.41363C5.13285 9.17715 5 8.85641 5 8.52197V21.134C5 21.8028 5.26571 22.4443 5.73868 22.9173C6.21164 23.3903 6.85312 23.656 7.522 23.656H23.177C23.6927 23.6689 24.1926 23.4771 24.5674 23.1226C24.9421 22.7681 25.1613 22.2796 25.177 21.764V11.675C25.1616 11.1592 24.9425 10.6706 24.5676 10.316C24.1928 9.96145 23.6928 9.76978 23.177 9.78297V9.78297Z" fill="white"/>
<path d="M15.7306 14.332L19.3796 10.716C19.4643 10.6312 19.522 10.5231 19.5454 10.4055C19.5689 10.2879 19.5569 10.1661 19.5111 10.0552C19.4654 9.94441 19.3878 9.84963 19.2882 9.78285C19.1886 9.71607 19.0715 9.68028 18.9516 9.68L16.4866 9.68L16.4866 0.605C16.4866 0.444544 16.4228 0.29066 16.3094 0.1772C16.1959 0.0637409 16.042 4.19174e-08 15.8816 4.38308e-08L14.6716 5.82599e-08C14.5111 6.01733e-08 14.3572 0.0637409 14.2438 0.1772C14.1303 0.29066 14.0666 0.444544 14.0666 0.605L14.0666 9.678L11.6046 9.678C11.4847 9.67848 11.3677 9.71441 11.2683 9.78126C11.1689 9.84812 11.0914 9.94291 11.0458 10.0537C11.0001 10.1645 10.9883 10.2863 11.0117 10.4038C11.0352 10.5213 11.0929 10.6292 11.1776 10.714L14.8226 14.333C14.9432 14.453 15.1066 14.5203 15.2768 14.5202C15.447 14.52 15.6102 14.4523 15.7306 14.332Z" fill="#FFBA00"/>
</g>
<defs>
<clipPath id="clip0_331_21">
<rect width="30" height="24" fill="white"/>
</clipPath>
</defs>
</svg>
