<svg width="30" height="24" viewBox="0 0 30 24" fill="none" xmlns="http://www.w3.org/2000/svg">
<path opacity="0.25" d="M22.026 0H7.522C6.85312 0 6.21164 0.26571 5.73868 0.738677C5.26571 1.21164 5 1.85312 5 2.522C4.99987 2.68768 5.03239 2.85176 5.0957 3.00487C5.15901 3.15798 5.25188 3.29711 5.36898 3.41431C5.48609 3.53151 5.62515 3.62448 5.77821 3.68792C5.93126 3.75135 6.09532 3.784 6.261 3.784H8.153C7.99013 3.77751 7.83608 3.70825 7.72314 3.59071C7.61019 3.47318 7.54712 3.3165 7.54712 3.1535C7.54712 2.9905 7.61019 2.83382 7.72314 2.71629C7.83608 2.59875 7.99013 2.52949 8.153 2.523H23.287C23.4544 2.523 23.6148 2.45652 23.7332 2.33818C23.8515 2.21985 23.918 2.05935 23.918 1.892C23.918 1.39021 23.7187 0.908973 23.3638 0.554154C23.009 0.199335 22.5278 0 22.026 0Z" fill="#FFBA00"/>
<path opacity="0.1" d="M23.177 3.78297H6.261C5.92656 3.78297 5.60582 3.65012 5.36934 3.41363C5.13285 3.17715 5 2.85641 5 2.52197V15.134C5 15.8028 5.26571 16.4443 5.73868 16.9173C6.21164 17.3903 6.85312 17.656 7.522 17.656H23.177C23.6927 17.6689 24.1926 17.4771 24.5674 17.1226C24.9421 16.7681 25.1613 16.2796 25.177 15.764V5.67497C25.1616 5.15924 24.9425 4.67062 24.5676 4.31603C24.1928 3.96145 23.6928 3.76978 23.177 3.78297Z" fill="white"/>
<path d="M15.5411 23.8119L19.1901 20.1959C19.2748 20.111 19.3326 20.003 19.356 19.8854C19.3794 19.7678 19.3675 19.6459 19.3217 19.5351C19.2759 19.4243 19.1983 19.3295 19.0987 19.2627C18.9991 19.1959 18.882 19.1601 18.7621 19.1599L16.2971 19.1599L16.2971 10.0849C16.2971 9.9244 16.2334 9.77052 16.1199 9.65706C16.0064 9.5436 15.8526 9.47986 15.6921 9.47986L14.4821 9.47986C14.3216 9.47986 14.1678 9.5436 14.0543 9.65706C13.9408 9.77052 13.8771 9.9244 13.8771 10.0849L13.8771 19.1579L11.4151 19.1579C11.2953 19.1583 11.1783 19.1943 11.0788 19.2611C10.9794 19.328 10.902 19.4228 10.8563 19.5335C10.8107 19.6443 10.7988 19.7661 10.8223 19.8836C10.8457 20.0012 10.9034 20.1091 10.9881 20.1939L14.6331 23.8129C14.7538 23.9329 14.9171 24.0002 15.0873 24C15.2575 23.9998 15.4207 23.9322 15.5411 23.8119V23.8119Z" fill="#FFBA00"/>
</svg>
