<svg width="30" height="24" viewBox="0 0 30 24" fill="none" xmlns="http://www.w3.org/2000/svg">
<g clip-path="url(#clip0_331_30)">
<path opacity="0.25" d="M22.026 6H7.522C6.85312 6 6.21164 6.26571 5.73868 6.73868C5.26571 7.21164 5 7.85312 5 8.522C4.99987 8.68768 5.03239 8.85176 5.0957 9.00487C5.15901 9.15798 5.25188 9.29711 5.36898 9.41431C5.48609 9.53151 5.62515 9.62448 5.77821 9.68792C5.93126 9.75135 6.09532 9.784 6.261 9.784H8.153C7.99013 9.77751 7.83608 9.70825 7.72314 9.59071C7.61019 9.47318 7.54712 9.3165 7.54712 9.1535C7.54712 8.9905 7.61019 8.83382 7.72314 8.71629C7.83608 8.59875 7.99013 8.52949 8.153 8.523H23.287C23.4544 8.523 23.6148 8.45652 23.7332 8.33818C23.8515 8.21985 23.918 8.05935 23.918 7.892C23.918 7.39021 23.7187 6.90897 23.3638 6.55415C23.009 6.19933 22.5278 6 22.026 6Z" fill="#FFBA00"/>
<path opacity="0.1" d="M23.177 10.261H6.261C5.92656 10.261 5.60582 10.1281 5.36934 9.89166C5.13285 9.65518 5 9.33444 5 9V21.612C5 22.2808 5.26571 22.9223 5.73868 23.3953C6.21164 23.8683 6.85312 24.134 7.522 24.134H23.177C23.6927 24.1469 24.1926 23.9551 24.5674 23.6006C24.9421 23.2461 25.1613 22.7576 25.177 22.242V12.153C25.1616 11.6373 24.9425 11.1486 24.5676 10.7941C24.1928 10.4395 23.6928 10.2478 23.177 10.261Z" fill="white"/>
<path d="M14.2281 0.201682L10.5896 3.82819C10.5051 3.91333 10.4476 4.0215 10.4246 4.13916C10.4015 4.25683 10.4138 4.3787 10.4599 4.48936C10.506 4.60003 10.5839 4.69461 10.6837 4.76112C10.7835 4.82763 10.9007 4.86309 11.0206 4.86295L13.4855 4.85584L13.5117 13.9308C13.5122 14.0913 13.5763 14.245 13.6901 14.3581C13.804 14.4713 13.958 14.5346 14.1185 14.5341L15.3285 14.5306C15.489 14.5301 15.6426 14.466 15.7557 14.3522C15.8689 14.2384 15.9322 14.0843 15.9317 13.9238L15.9055 4.85086L18.3675 4.84376C18.4873 4.84302 18.6042 4.80668 18.7035 4.73959C18.8027 4.67241 18.8799 4.57738 18.9252 4.46655C18.9705 4.35562 18.9821 4.23379 18.9582 4.11636C18.9345 3.99882 18.8765 3.89109 18.7915 3.80654L15.1361 0.198062C15.0151 0.0784106 14.8516 0.0115823 14.6814 0.0122731C14.5112 0.0129639 14.3482 0.081035 14.2281 0.201682Z" fill="#FFBA00"/>
</g>
<defs>
<clipPath id="clip0_331_30">
<rect width="30" height="24" fill="white"/>
</clipPath>
</defs>
</svg>
