<svg width="1327" height="1327" viewBox="0 0 1327 1327" fill="none" xmlns="http://www.w3.org/2000/svg">
<rect width="1326.1" height="1326.1" rx="663.05" fill="#E6007A"/>
<path d="M662.5 322C779.308 322 874 266.931 874 199C874 131.069 779.308 76 662.5 76C545.692 76 451 131.069 451 199C451 266.931 545.692 322 662.5 322Z" fill="white"/>
<path d="M662.5 1250C779.308 1250 874 1194.93 874 1127C874 1059.07 779.308 1004 662.5 1004C545.692 1004 451 1059.07 451 1127C451 1194.93 545.692 1250 662.5 1250Z" fill="white"/>
<path d="M368.119 493.014C426.555 391.803 426.176 282.185 367.272 248.175C308.368 214.166 213.245 268.644 154.808 369.856C96.372 471.067 96.7512 580.686 155.655 614.695C214.56 648.704 309.683 594.226 368.119 493.014Z" fill="white"/>
<path d="M1171.14 956.635C1229.58 855.423 1229.23 745.824 1170.37 711.837C1111.5 677.851 1016.41 732.348 957.975 833.559C899.539 934.771 899.886 1044.37 958.751 1078.36C1017.61 1112.34 1112.71 1057.85 1171.14 956.635Z" fill="white"/>
<path d="M367.301 1078.33C426.206 1044.32 426.585 934.702 368.149 833.49C309.712 732.278 214.589 677.8 155.685 711.809C96.7808 745.819 96.4015 855.437 154.838 956.649C213.274 1057.86 308.397 1112.34 367.301 1078.33Z" fill="white"/>
<path d="M1170.42 614.722C1229.28 580.736 1229.63 471.136 1171.19 369.925C1112.76 268.713 1017.66 214.216 958.8 248.203C899.936 282.189 899.589 391.788 958.025 493C1016.46 594.212 1111.55 648.709 1170.42 614.722Z" fill="white"/>
</svg>
