<svg width="221" height="220" viewBox="0 0 221 220" fill="none" xmlns="http://www.w3.org/2000/svg">
<path d="M1 110C1 49.2487 50.2487 0 111 0V0C171.751 0 221 49.2487 221 110V110C221 170.751 171.751 220 111 220V220C50.2487 220 1 170.751 1 110V110Z" fill="white"/>
<path fill-rule="evenodd" clip-rule="evenodd" d="M110.57 0C132.326 0 153.594 6.45139 171.683 18.5383C189.772 30.6253 203.871 47.805 212.197 67.9048C220.523 88.0047 222.701 110.122 218.457 131.46C214.212 152.798 203.736 172.398 188.352 187.782C172.968 203.166 153.368 213.642 132.03 217.886C110.692 222.131 88.575 219.952 68.4751 211.627C48.3753 203.301 31.1956 189.202 19.1087 171.113C7.0217 153.023 0.570313 131.756 0.570312 110C0.570312 80.8262 12.1596 52.8473 32.7886 32.2183C53.4176 11.5893 81.3965 0 110.57 0V0Z" fill="white"/>
<path fill-rule="evenodd" clip-rule="evenodd" d="M110.57 23.6201L139.51 66.8601L168.45 110.11L110.57 139.27L52.6904 110L81.6304 66.7501L110.57 23.6201ZM110.57 150.92L55.9004 121.75L110.57 196.38L165.24 121.75L110.57 150.92Z" fill="#343434"/>
<path fill-rule="evenodd" clip-rule="evenodd" d="M110.57 23.6201L139.51 66.7501L168.45 110L110.57 88.1501V23.6201Z" fill="#343434"/>
<path fill-rule="evenodd" clip-rule="evenodd" d="M110.57 150.92L165.35 121.75L110.57 196.49V150.92Z" fill="#313131"/>
<path fill-rule="evenodd" clip-rule="evenodd" d="M110.57 88.1499L168.45 110L110.57 139.16V88.1499Z" fill="#151515"/>
<path fill-rule="evenodd" clip-rule="evenodd" d="M110.57 23.6201L81.6304 66.7501L52.6904 110L110.57 88.1501V23.6201Z" fill="#8C8C8C"/>
<path fill-rule="evenodd" clip-rule="evenodd" d="M110.57 150.92L55.9004 121.75L110.57 196.49V150.92Z" fill="#8A8A8A"/>
<path fill-rule="evenodd" clip-rule="evenodd" d="M110.57 88.1499L52.6904 110L110.57 139.16V88.1499Z" fill="#353535"/>
</svg>
