<svg width="24" height="24" viewBox="0 0 24 24" fill="none" xmlns="http://www.w3.org/2000/svg">
<path d="M12 24C18.6274 24 24 18.6274 24 12C24 5.37258 18.6274 0 12 0C5.37258 0 0 5.37258 0 12C0 18.6274 5.37258 24 12 24Z" fill="black"/>
<path d="M12.3892 3.75V7.84275L15.9427 5.799L12.3892 3.75Z" fill="#00D4D5"/>
<path opacity="0.9" d="M15.9427 5.79901V9.89176L19.4955 7.84276L15.9427 5.79901Z" fill="#00D4D5"/>
<path opacity="0.8" d="M12.3892 7.84274V11.9355L15.9427 9.89174L12.3892 7.84274ZM15.9427 9.89249V13.9845L19.4955 11.9355L15.9427 9.89249Z" fill="#00D4D5"/>
<path opacity="0.8" d="M12.3892 11.9355V16.0282L15.9427 13.9845L12.3892 11.9355Z" fill="#00D4D5"/>
<path d="M15.9427 13.9845V18.0772L19.4955 16.0282L15.9427 13.9845Z" fill="#00D4D5"/>
<path opacity="0.4" d="M3.20477 7.70474V11.7975L6.75827 9.74849L3.20477 7.70474Z" fill="#00D4D5"/>
<path opacity="0.2" d="M7.6875 9.2265V13.3193L11.235 11.2755L7.6875 9.2265Z" fill="#00D4D5"/>
<path opacity="0.3" d="M5.05353 11.8148V15.9075L8.60628 13.8585L5.05353 11.8148Z" fill="#00D4D5"/>
<path opacity="0.9" d="M7.39502 14.9033V18.996L10.9425 16.947L7.39502 14.9033Z" fill="#00D4D5"/>
<path opacity="0.7" d="M12.36 16.665V20.7585L15.9075 18.7088L12.36 16.665Z" fill="#00D4D5"/>
<path opacity="0.9" d="M8.27924 7.20526V11.2988L11.8267 9.25501L8.27924 7.20526Z" fill="#00D4D5"/>
<path opacity="0.8" d="M12.3893 3.75V7.84275L8.83575 5.799L12.3893 3.75Z" fill="#00D4D5"/>
<path opacity="0.6" d="M8.27923 5.48999V9.58199L4.72498 7.53299L8.27923 5.48999Z" fill="#00D4D5"/>
<path opacity="0.6" d="M11.8327 7.51498V11.6085L8.27924 9.55873L11.8327 7.51498Z" fill="#00D4D5"/>
<path opacity="0.95" d="M7.67099 9.2265V13.3193L4.11749 11.2755L7.67099 9.2265Z" fill="#00D4D5"/>
<path opacity="0.6" d="M12.3892 11.9355V16.0282L8.84174 13.9845L12.3892 11.9355Z" fill="#00D4D5"/>
<path opacity="0.55" d="M5.0535 12.8888V16.9815L1.5 14.9318L5.0535 12.8888Z" fill="#00D4D5"/>
<path d="M19.4955 7.84274V11.9355L15.9427 9.89174L19.4955 7.84274Z" fill="#00D4D5"/>
<path opacity="0.95" d="M15.9427 9.89249V13.9845L12.3892 11.9355L15.9427 9.89249Z" fill="#00D4D5"/>
<path opacity="0.9" d="M19.4955 11.9355V16.0282L15.9427 13.9845L19.4955 11.9355Z" fill="#00D4D5"/>
<path opacity="0.7" d="M15.9427 13.9845V18.0772L12.3892 16.0282L15.9427 13.9845Z" fill="#00D4D5"/>
<path opacity="0.4" d="M11.6025 15.69V19.7828L8.04974 17.739L11.6025 15.69Z" fill="#00D4D5"/>
<path d="M15.9427 5.79901V9.89176L12.3892 7.84276L15.9427 5.79901Z" fill="#00D4D5"/>
</svg>
