<svg xmlns="http://www.w3.org/2000/svg" xmlns:xlink="http://www.w3.org/1999/xlink" width="73" height="73" viewBox="0 0 73 73">
  <defs>
    <clipPath id="clip-path">
      <path id="Path_55" data-name="Path 55" d="M5041.115-67a17.566,17.566,0,0,1,16.364,10.844,19.167,19.167,0,0,0-1.326-1.807,14.083,14.083,0,0,0-12.868-4.458c-.217-1.084-.23-2.048-.784-2.651a.863.863,0,0,0-.626-.361c-.471-.121-.915.361-1.338,1.325a5.945,5.945,0,0,1-2.856,3.494,15.618,15.618,0,0,0-4.59,3.976c-1.8,2.41-2.446,4.458-2.06,6.025.168,3.012,2.494,5.3,6.639,5.543a13.288,13.288,0,0,0,4.6-.482c1.409-.361,2.2-.843,5.432-2.048s6.387-1.325,8.929.482l.229.241a6.176,6.176,0,0,1,1.351,1.446,17.533,17.533,0,0,1-17.1,13.134A17.529,17.529,0,0,1,5023.5-49.649,17.452,17.452,0,0,1,5041.115-67Z" transform="translate(-5023.5 67)" fill="#fff" clip-rule="evenodd"/>
    </clipPath>
    <clipPath id="clip-path-2">
      <rect id="Rectangle_134" data-name="Rectangle 134" width="1542.318" height="1122.721" fill="#fff"/>
    </clipPath>
    <clipPath id="clip-path-3">
      <rect id="Rectangle_133" data-name="Rectangle 133" width="48.197" height="48.198" fill="#fff"/>
    </clipPath>
    <clipPath id="clip-path-4">
      <rect id="Rectangle_130" data-name="Rectangle 130" width="35.439" height="35.439" fill="#fff"/>
    </clipPath>
    <clipPath id="clip-path-5">
      <path id="Path_54" data-name="Path 54" d="M5036.441-60.437a2.176,2.176,0,0,1,.2-1.084c.012,0-.2,1.084,1.145-2.048,1.349-3.012,2.807-3.976,8-5.061,5.481-1.084,11.024,0,16.627,3.012l-1.047,15.423-17.665-3.133Z" transform="translate(-5036.436 69.041)" fill="#fff" clip-rule="evenodd"/>
    </clipPath>
    <clipPath id="clip-path-7">
      <path id="Path_56" data-name="Path 56" d="M5030.167-55.6q-3.126,8.676,2.615,15.544c6.12,5.9,12.713,4.579,12.87,4.579.216.964.227,2.048.782,2.651.651.723,1.29.361,1.867-.964a5.979,5.979,0,0,1,2.845-3.494,15.6,15.6,0,0,0,4.591-4.1c4.157-5.422,2.18-11.085-4.482-11.447a10.839,10.839,0,0,0-4.591.482c-1.411.361-2.217.843-5.435,2.048s-6.422,1.687-9.206,0A4.466,4.466,0,0,1,5030.167-55.6Z" transform="translate(-5029.064 55.6)" fill="#fff" clip-rule="evenodd"/>
    </clipPath>
  </defs>
  <g id="Group_687" data-name="Group 687" transform="translate(-835 -1485.398)">
    <circle id="Ellipse_10" data-name="Ellipse 10" cx="36.5" cy="36.5" r="36.5" transform="translate(835 1485.398)" fill="#f03a47"/>
    <g id="_001-bitcoin" data-name="001-bitcoin" transform="translate(853.697 1503.103)">
      <g id="Group_245" data-name="Group 245" clip-path="url(#clip-path)">
        <g id="Group_244" data-name="Group 244" transform="translate(-50.005 -72.863)">
          <g id="Group_243" data-name="Group 243" transform="translate(0 0)" clip-path="url(#clip-path-2)">
            <g id="Group_242" data-name="Group 242" transform="translate(43.945 65.209)">
              <g id="Group_241" data-name="Group 241" transform="translate(0 0)" clip-path="url(#clip-path-3)">
                <g id="Group_236" data-name="Group 236" transform="translate(5.67 7.088)">
                  <g id="Group_235" data-name="Group 235" transform="translate(0 0)" clip-path="url(#clip-path-4)">
                    <rect id="Rectangle_129" data-name="Rectangle 129" width="46.764" height="46.751" transform="translate(-5.635 -5.458)" fill="#fff"/>
                  </g>
                </g>
                <g id="Group_240" data-name="Group 240" transform="translate(21.647 5.196)">
                  <g id="Group_239" data-name="Group 239" clip-path="url(#clip-path-5)">
                    <g id="Group_238" data-name="Group 238" transform="translate(-15.976 1.892)">
                      <g id="Group_237" data-name="Group 237" transform="translate(0)" clip-path="url(#clip-path-4)">
                        <rect id="Rectangle_131" data-name="Rectangle 131" width="38.04" height="30.846" transform="translate(9.945 -7.868)" fill="#fff"/>
                      </g>
                    </g>
                  </g>
                </g>
              </g>
            </g>
          </g>
        </g>
      </g>
      <g id="Group_248" data-name="Group 248" transform="translate(6.705 13.736)" clip-path="url(#clip-path-7)">
        <g id="Group_247" data-name="Group 247" transform="translate(-56.71 -86.6)">
          <g id="Group_246" data-name="Group 246" transform="translate(0 0)" clip-path="url(#clip-path-2)">
            <rect id="Rectangle_135" data-name="Rectangle 135" width="40.895" height="35.183" transform="translate(50.68 80.576)" fill="#fff"/>
          </g>
        </g>
      </g>
    </g>
  </g>
</svg>
