<svg width="788" height="788" viewBox="0 0 788 788" fill="none" xmlns="http://www.w3.org/2000/svg">
<circle cx="394" cy="394" r="394" fill="white"/>
<g clip-path="url(#clip0_611_6)">
<path d="M251.074 641.847C247.347 641.511 243.672 640.742 240.122 639.557C235.046 637.561 230.247 634.921 225.845 631.702C225.562 631.504 218.126 623.038 217.69 622.175C215.65 618.007 213.15 614.015 211.576 609.671C210.2 605.854 209.749 601.228 209.749 597.167C209.856 525.288 207.854 453.333 210.162 381.515C210.162 380.622 215.329 367.561 216.276 365.889C217.935 362.935 225.127 354.82 227.603 353.103C236.01 347.225 245.335 343.057 255.767 342.965C257.921 342.317 259.873 341.129 261.438 339.515C261.392 301.423 260.368 263.292 261.874 225.246C262.088 219.734 263.196 210.33 264.847 204.925C267.996 194.727 271.129 184.81 275.753 175.238C277.954 170.657 283.297 162.016 286.644 158.047C291.773 151.94 296.641 145.978 302.396 140.642C309.221 134.306 318.171 128.092 326.173 123.237C333.128 118.977 344.684 113.313 352.771 110.909C359.412 108.83 366.197 107.238 373.07 106.145C385.199 104.389 398.429 104.931 410.62 105.992C418.573 106.886 426.429 108.498 434.091 110.809C441.497 113.176 448.956 116.565 455.996 119.84C462.163 122.725 471.159 128.092 476.333 132.649C481.813 137.489 487.331 141.718 492.108 146.924C497.875 153.406 503.211 160.258 508.082 167.436C512.538 173.887 518.148 184.803 520.555 192.444C522.16 197.498 523.704 202.948 525.141 208.07C526.509 212.994 527.227 223.025 527.227 228.383C527.357 264.934 526.012 301.247 527.441 337.774C527.487 339.141 531.332 342.614 532.638 342.813C542.284 344.263 547.412 345.568 556.102 349.683C558.234 350.698 566.382 357.82 567.513 359.607C571.579 366.05 574.445 369.088 576.86 376.798C578.271 381.359 578.977 386.108 578.954 390.882C579.13 456.532 578.779 522.182 579 587.786C579 600.938 579.084 609.557 572.022 620.61C569.042 625.252 564.173 629.572 559.985 633.114C557.768 634.977 551.203 638.626 548.314 639.756C545.838 640.71 538.233 642.687 535.795 642.687C440.916 642.908 345.846 643.557 251.074 641.847ZM524.873 612.152C527.113 612.152 533.349 611.977 535.826 611.48C539.112 610.549 543.675 608.03 545.433 604.992C547.413 601.677 548.512 597.911 548.627 594.053C548.841 526.876 548.892 459.679 548.78 392.462C548.78 389.767 546.824 383.798 545.479 381.523C541.657 375.057 533.479 373.126 526.44 373.126C437.782 373.477 349.125 373.019 260.467 373.263C255.989 373.263 255.186 373.866 251.082 375.279C249.775 375.714 245.403 378.706 244.693 379.813C237.814 390.126 240.405 402.539 240.542 414.325C240.581 418.142 239.954 421.333 239.977 425.264C240.237 477.356 239.847 529.426 239.977 581.534C239.912 588.34 240.457 595.138 241.605 601.847C242.667 607.709 251.663 612.137 257.357 612.16C346.473 612.481 435.589 611.809 524.835 612.152H524.873ZM299.538 342.026C364.181 341.813 428.879 342.202 493.545 341.744C494.584 340.835 496.09 340.423 496.938 339.316C497 338.293 497.045 337.255 497.023 336.263C496.564 298.629 498.826 257.636 495.494 220.628C494.73 211.879 491.405 201.803 487.232 194.055C482.149 184.635 475.997 175.261 468.545 167.489C464.662 163.355 460.463 159.526 455.988 156.039C449.21 151.117 441.853 147.044 434.083 143.909C427.513 141.234 420.703 139.189 413.746 137.802C407.538 136.677 401.266 135.938 394.967 135.588C383.908 135.023 372.719 137.878 362.103 140.794C358.281 141.84 351.303 145.161 348.024 147.153C340.152 151.863 332.311 156.856 325.356 162.825C318.943 168.322 311.04 177.497 306.692 184.703C302.167 192.215 295.992 204.131 294.585 212.834C291.65 231.155 292.048 248.972 291.742 267.529C291.391 289.232 293.347 314.606 292.262 336.286C292.262 336.4 292.415 339.286 292.461 339.416C293.197 340.246 293.986 341.029 294.822 341.759C296.387 341.944 297.962 342.034 299.538 342.026V342.026Z" fill="#007AFF"/>
<path d="M388.715 541.594C385.826 541.357 380.178 539.831 377.763 538.182C373.927 535.506 370.568 532.206 367.827 528.418C366.474 526.548 362.263 516.716 361.896 514.357C361.33 510.731 361.804 501.83 363.279 498.723C366.696 491.54 369.975 488.96 375.21 483.097C376.693 481.28 377.722 479.137 378.214 476.845C378.281 476.339 378.309 475.829 378.298 475.318C379.215 464.509 376.884 445.28 380.323 436.249C381.369 433.536 383.189 431.19 385.558 429.501C388.077 428.316 390.693 427.35 393.377 426.615C393.882 426.615 394.401 426.615 394.906 426.615C397.019 427.038 399.109 427.573 401.165 428.218C402.579 428.676 407.279 433.211 407.814 434.684C411.399 444.669 409.572 462.448 409.924 473.753C412.217 476.166 418.507 486.494 421.961 490.944C422.137 491.135 426.264 504.227 426.349 505.006C427.564 513.929 424.698 522.716 420.334 530.014C419.523 531.311 412.095 537.54 410.551 538.342C403.817 541.876 396.213 542.243 388.715 541.594Z" fill="#007AFF"/>
</g>
<defs>
<clipPath id="clip0_611_6">
<rect width="370" height="538" fill="white" transform="translate(209 105)"/>
</clipPath>
</defs>
</svg>
