<svg width="134" height="134" viewBox="0 0 134 134" fill="none" xmlns="http://www.w3.org/2000/svg">
<circle cx="67" cy="67" r="67" fill="white"/>
<g clip-path="url(#clip0_611_7)">
<path d="M94.2 26.6L75.4 54.5C74.1 56.4 76.6 58.7 78.4 57.1L96.9 41C97.4 40.6 98.1 40.9 98.1 41.6V91.9C98.1 92.6 97.2 92.9 96.8 92.4L40.8 25.4C39 23.2 36.4 22 33.5 22H31.5C26.3 22 22 26.3 22 31.6V102.4C22 107.7 26.3 112 31.6 112C34.9 112 38 110.3 39.8 107.4L58.6 79.5C59.9 77.6 57.4 75.3 55.6 76.9L37.1 92.9C36.6 93.3 35.9 93 35.9 92.3V42.1C35.9 41.4 36.8 41.1 37.2 41.6L93.2 108.6C95 110.8 97.7 112 100.5 112H102.5C107.8 112 112.1 107.7 112.1 102.4V31.6C112.1 26.3 107.8 22 102.5 22C99.1 22 96 23.7 94.2 26.6Z" fill="black"/>
</g>
<defs>
<clipPath id="clip0_611_7">
<rect width="90.1" height="90" fill="white" transform="translate(22 22)"/>
</clipPath>
</defs>
</svg>
