<svg width="25" height="25" viewBox="0 0 25 25" fill="none" xmlns="http://www.w3.org/2000/svg">
<path d="M12.3501 24.3501C18.9775 24.3501 24.3501 18.9775 24.3501 12.3501C24.3501 5.72268 18.9775 0.350098 12.3501 0.350098C5.72268 0.350098 0.350098 5.72268 0.350098 12.3501C0.350098 18.9775 5.72268 24.3501 12.3501 24.3501Z" fill="#62EA8B"/>
<path d="M17.9699 13.9683C17.86 13.6347 17.6941 13.3222 17.4793 13.0443C17.2485 12.7471 16.9717 12.4887 16.6593 12.279C16.306 12.0421 15.9177 11.8621 15.5086 11.7457C15.3326 11.699 15.0219 11.6257 14.6139 11.5257C14.3219 11.455 14.0486 11.3817 13.7393 11.307V7.68699C14.0078 7.76413 14.2619 7.88485 14.4913 8.04433C14.7478 8.21993 14.9611 8.45167 15.1147 8.72197C15.2683 8.99228 15.3583 9.29403 15.3779 9.60432H17.7499C17.7425 9.05309 17.6016 8.51187 17.3393 8.02699C17.0635 7.52684 16.68 7.09419 16.2166 6.76032C15.7139 6.40714 15.1522 6.1466 14.5579 5.99099C14.29 5.91271 14.0169 5.85345 13.7406 5.81366V4.66699H11.5446V5.80433C11.3046 5.84033 11.0246 5.88833 10.7753 5.94966C10.2152 6.08407 9.68221 6.31314 9.19927 6.62699C8.74503 6.92276 8.36316 7.31694 8.08194 7.78032C7.79047 8.27866 7.64407 8.84854 7.65927 9.42566C7.65959 9.75354 7.70765 10.0796 7.80194 10.3937C7.90228 10.7213 8.0658 11.0262 8.28327 11.291C8.54027 11.5984 8.85 11.8576 9.19794 12.0563C9.64254 12.3117 10.123 12.4986 10.6233 12.611C10.9419 12.691 11.2686 12.767 11.5433 12.8363V16.9337C11.169 16.84 10.8133 16.6835 10.4913 16.471C10.1836 16.2641 9.93355 15.9824 9.76461 15.6523C9.59844 15.3042 9.51189 14.9234 9.51127 14.5377H7.15527C7.16408 15.1982 7.32466 15.8478 7.6246 16.4363C7.91321 16.9874 8.32639 17.4636 8.83128 17.827C9.36076 18.2023 9.95662 18.4738 10.5873 18.627C10.9029 18.704 11.2225 18.7636 11.5446 18.8057V20.0177H13.7393V18.8337C14.0686 18.7981 14.3954 18.7424 14.7179 18.667C15.3281 18.5344 15.9114 18.2995 16.4433 17.9723C16.9393 17.6639 17.3573 17.245 17.6646 16.7483C17.9857 16.2025 18.1465 15.5773 18.1286 14.9443C18.127 14.6127 18.0735 14.2834 17.9699 13.9683V13.9683ZM11.5446 10.7603C11.1464 10.6492 10.7733 10.4622 10.4459 10.2097C10.2055 9.97292 10.0546 9.66007 10.0191 9.32451C9.98364 8.98895 10.0657 8.65147 10.2513 8.36966C10.4022 8.15947 10.6004 7.98773 10.8299 7.86833C11.0573 7.75773 11.2973 7.67533 11.5446 7.62299V10.7603ZM15.6219 15.8963C15.5119 16.1365 15.3431 16.3451 15.1313 16.503C14.8577 16.6988 14.5517 16.8446 14.2273 16.9337C14.0684 16.9857 13.905 17.0227 13.7393 17.0443V13.3723C14.0819 13.4617 14.3633 13.555 14.6419 13.651C14.9329 13.752 15.1973 13.9174 15.4153 14.135C15.5427 14.28 15.6397 14.4492 15.7004 14.6324C15.7611 14.8157 15.7843 15.0093 15.7686 15.2017C15.7683 15.4406 15.7179 15.6768 15.6206 15.895L15.6219 15.8963Z" fill="white"/>
</svg>
