<svg xmlns="http://www.w3.org/2000/svg" width="30" height="35.713" viewBox="0 0 30 35.713">
  <g id="icon-withdraw" transform="translate(-424.59 -571.537)">
    <g id="wallet-duotone" transform="translate(424.59 581)">
      <path id="Path_2699" data-name="Path 2699" d="M25.312,0H3.75A3.75,3.75,0,0,0,0,3.75,1.875,1.875,0,0,0,1.875,5.625H4.687a.937.937,0,0,1,0-1.875h22.5a.937.937,0,0,0,.938-.937A2.812,2.812,0,0,0,25.312,0Z" fill="#9aa3a7" opacity="0.5"/>
      <path id="Path_2700" data-name="Path 2700" d="M27.023,1.875H1.875A1.875,1.875,0,0,1,0,0V18.75A3.75,3.75,0,0,0,3.75,22.5H27.023A2.9,2.9,0,0,0,30,19.687v-15A2.9,2.9,0,0,0,27.023,1.875Z" transform="translate(0 3.75)" fill="#fff"/>
    </g>
    <path id="Path_2701" data-name="Path 2701" d="M21.307,5.692,15.932.267A.9.9,0,0,0,14.391.9V4.567H.9a.9.9,0,0,0-.9.9v1.8a.9.9,0,0,0,.9.9H14.388v3.66a.9.9,0,0,0,1.541.635l5.381-5.42A.956.956,0,0,0,21.307,5.692Z" transform="translate(433.519 593.124) rotate(-90)" fill="#9aa3a7"/>
  </g>
</svg>
